<?xml version="1.0" encoding="UTF-8"?>
<svg version="1.1" xmlns="http://www.w3.org/2000/svg" width="736" height="200">
<path d="M0 0 C242.88 0 485.76 0 736 0 C736 66 736 132 736 200 C493.12 200 250.24 200 0 200 C0 134 0 68 0 0 Z " fill="#FDFDFD" transform="translate(0,0)"/>
<path d="M0 0 C1.134375 0.020625 2.26875 0.04125 3.4375 0.0625 C3.4375 0.7225 3.4375 1.3825 3.4375 2.0625 C2.65375 2.64 1.87 3.2175 1.0625 3.8125 C-2.76282037 7.09134603 -3.39596702 10.42815312 -3.8984375 15.359375 C-4.06670204 30.23396065 1.19374514 38.006941 10.97290039 48.59350586 C12.97895432 50.60557895 15.21098037 52.30208569 17.4375 54.0625 C18.79761609 56.04438345 20.13541204 58.04201869 21.4375 60.0625 C22.4275 60.5575 22.4275 60.5575 23.4375 61.0625 C26.08874766 67.45557946 27.12370185 75.63224326 24.609375 82.23828125 C23.5625 83.875 23.5625 83.875 21.4375 86.0625 C20.7775 86.0625 20.1175 86.0625 19.4375 86.0625 C19.4375 86.7225 19.4375 87.3825 19.4375 88.0625 C14.73950052 92.02805547 11.17261723 92.71772218 5.125 92.5625 C4.37025391 92.54968994 3.61550781 92.53687988 2.83789062 92.52368164 C-9.92572735 92.05977534 -18.47585374 84.41967399 -27.15234375 75.640625 C-30.07963558 72.36465298 -31.19763883 69.15708352 -32.5625 65.0625 C-33.2225 64.0725 -33.8825 63.0825 -34.5625 62.0625 C-37.52621822 53.07987256 -38.74399575 39.94764795 -34.8125 31.125 C-34.07106157 29.76612678 -33.32116931 28.41182881 -32.5625 27.0625 C-31.95066721 25.54473453 -31.34661153 24.023813 -30.75 22.5 C-28.6144756 17.68659579 -25.58560746 13.48820868 -21.5625 10.0625 C-20.5725 10.0625 -19.5825 10.0625 -18.5625 10.0625 C-18.5625 9.4025 -18.5625 8.7425 -18.5625 8.0625 C-17.56347656 7.56878906 -16.56445312 7.07507812 -15.53515625 6.56640625 C-14.2317186 5.91937605 -12.92833602 5.27223489 -11.625 4.625 C-10.96564453 4.29951172 -10.30628906 3.97402344 -9.62695312 3.63867188 C-2.39662279 0.04204601 -2.39662279 0.04204601 0 0 Z " fill="#282E4F" transform="translate(82.5625,51.9375)"/>
<path d="M0 0 C4.25632593 1.76481807 7.4591354 4.09897584 11 7 C11.86882812 7.51433594 12.73765625 8.02867188 13.6328125 8.55859375 C16.80041794 10.4873832 18.79988207 13.08230514 21 16 C21.47050781 16.60714844 21.94101563 17.21429688 22.42578125 17.83984375 C26 22.60211268 26 22.60211268 26 26 C26.66 26 27.32 26 28 26 C28 27.32 28 28.64 28 30 C28.66 30 29.32 30 30 30 C33.36276638 43.84138661 33.12753619 57.40801939 26 70 C25.34 70 24.68 70 24 70 C23.896875 70.5775 23.79375 71.155 23.6875 71.75 C22.88350079 74.38127015 21.86932485 75.98688093 20 78 C19.01 78 18.02 78 17 78 C16.773125 78.5775 16.54625 79.155 16.3125 79.75 C14.64018419 82.6168271 12.72780269 84.13711036 10 86 C9.01 86 8.02 86 7 86 C7 86.66 7 87.32 7 88 C-2.22551253 92.59225513 -2.22551253 92.59225513 -8 92 C-7.34 90.68 -6.68 89.36 -6 88 C-5.34 88 -4.68 88 -4 88 C-3.87625 87.46375 -3.7525 86.9275 -3.625 86.375 C-3 84 -3 84 -2.00390625 81.2578125 C-0.11012901 75.11224746 0.73791458 68.18209034 -1.79541016 62.0859375 C-5.44636077 55.19186465 -10.28007317 49.27993246 -16 44 C-16 43.34 -16 42.68 -16 42 C-16.639375 41.773125 -17.27875 41.54625 -17.9375 41.3125 C-20 40 -20 40 -20.75 37.375 C-20.8325 36.59125 -20.915 35.8075 -21 35 C-21.66 35 -22.32 35 -23 35 C-23 34.34 -23 33.68 -23 33 C-23.99 32.67 -24.98 32.34 -26 32 C-28 29 -28 29 -28 26 C-28.66 26 -29.32 26 -30 26 C-30.57042254 11.76056338 -30.57042254 11.76056338 -27 7 C-26.01 6.67 -25.02 6.34 -24 6 C-24 5.34 -24 4.68 -24 4 C-23.34 4 -22.68 4 -22 4 C-22 3.34 -22 2.68 -22 2 C-16.04180228 -1.97213181 -6.91570659 -1.04712723 0 0 Z " fill="#798FB0" transform="translate(112,52)"/>
<path d="M0 0 C7.26 0 14.52 0 22 0 C23.8283828 4.87568748 25.52739786 9.54223947 27 14.5 C28.11695578 18.20178832 29.27175836 21.83944442 30.6875 25.4375 C31.87874897 28.67089007 32.57391987 31.59135894 33 35 C33.99 35.33 34.98 35.66 36 36 C36.10957031 35.21496094 36.21914063 34.42992187 36.33203125 33.62109375 C37.78696118 23.98070441 37.78696118 23.98070441 39.5625 20.125 C40.98957525 17.02266249 41.58867518 14.37286356 42 11 C42.66 11 43.32 11 44 11 C44 9.02 44 7.04 44 5 C44.66 5 45.32 5 46 5 C46.33 3.35 46.66 1.7 47 0 C54.59 0 62.18 0 70 0 C70 17.82 70 35.64 70 54 C65.05 54 60.1 54 55 54 C54.67 41.79 54.34 29.58 54 17 C49.28194354 27.46896089 49.28194354 27.46896089 46.5625 38.5 C45.96668786 42.20727551 44.69583819 44.67898355 43 48 C42.67 49.98 42.34 51.96 42 54 C36.72 54 31.44 54 26 54 C23.3137662 47.82166226 21.45760866 42.21225575 20.4921875 35.54296875 C20.07625372 32.94769511 20.07625372 32.94769511 18.953125 30.4453125 C17.54715437 26.83819113 17.86965541 23.84516535 18 20 C17.34 20 16.68 20 16 20 C16 18.68 16 17.36 16 16 C15.34 16 14.68 16 14 16 C14 28.54 14 41.08 14 54 C9.38 54 4.76 54 0 54 C0 36.18 0 18.36 0 0 Z " fill="#2E314F" transform="translate(370,78)"/>
<path d="M0 0 C4.62 0 9.24 0 14 0 C14 13.2 14 26.4 14 40 C14.66 40 15.32 40 16 40 C16.33 40.99 16.66 41.98 17 43 C20.63 43.66 24.26 44.32 28 45 C28 30.48 28 15.96 28 1 C32.62 1 37.24 1 42 1 C42 15.52 42 30.04 42 45 C46.62 45 51.24 45 56 45 C56 30.48 56 15.96 56 1 C60.62 1 65.24 1 70 1 C70 18.82 70 36.64 70 55 C62.28710855 55.08398793 54.57588228 55.16411087 46.8629303 55.20700073 C43.27088772 55.22808444 39.67922543 55.25623719 36.08740234 55.30175781 C32.6249581 55.34536192 29.16288159 55.36916743 25.70018387 55.37950897 C23.74257518 55.39044821 21.78511352 55.42165128 19.82772827 55.45318604 C8.66044286 55.45599577 8.66044286 55.45599577 4 51 C3.22430664 50.31010986 2.44861328 49.62021973 1.64941406 48.90942383 C-0.84917344 44.50213146 -0.49546632 40.42787754 -0.390625 35.44921875 C-0.38496521 34.43527542 -0.37930542 33.42133209 -0.37347412 32.37666321 C-0.35112998 29.14645664 -0.30093598 25.91736983 -0.25 22.6875 C-0.22993252 20.49415667 -0.21168218 18.30079592 -0.1953125 16.10742188 C-0.15127139 10.73785151 -0.0822562 5.36911544 0 0 Z " fill="#3F425C" transform="translate(164,77)"/>
<path d="M0 0 C4.29 0 8.58 0 13 0 C13 13.86 13 27.72 13 42 C17.78539445 43.59513148 22.9731754 43.58109795 28 44 C28 29.48 28 14.96 28 0 C32.29 0 36.58 0 41 0 C41 14.52 41 29.04 41 44 C47.435 43.505 47.435 43.505 54 43 C54.33 28.81 54.66 14.62 55 0 C59.62 0 64.24 0 69 0 C69 17.82 69 35.64 69 54 C61.28710855 54.08398793 53.57588228 54.16411087 45.8629303 54.20700073 C42.27088772 54.22808444 38.67922543 54.25623719 35.08740234 54.30175781 C31.6249581 54.34536192 28.16288159 54.36916743 24.70018387 54.37950897 C22.74257518 54.39044821 20.78511352 54.42165128 18.82772827 54.45318604 C7.80097044 54.45596041 7.80097044 54.45596041 3 50 C2.46395645 49.55639633 1.9279129 49.11279266 1.37562561 48.65574646 C-0.45015513 46.45817905 -0.36336557 45.17845284 -0.34057617 42.3449707 C-0.34034958 41.40422195 -0.34012299 40.46347321 -0.33988953 39.49421692 C-0.32440567 38.48163315 -0.30892181 37.46904938 -0.29296875 36.42578125 C-0.28872391 35.38681198 -0.28447906 34.34784271 -0.28010559 33.27738953 C-0.26329849 29.95549724 -0.22564196 26.63420925 -0.1875 23.3125 C-0.17245582 21.06185771 -0.15876695 18.81120593 -0.14648438 16.56054688 C-0.1133882 11.04013136 -0.06159139 5.52016817 0 0 Z " fill="#2F334F" transform="translate(290,78)"/>
<path d="M0 0 C0.7115625 -0.00386719 1.423125 -0.00773437 2.15625 -0.01171875 C9.15528901 0.00133916 9.15528901 0.00133916 12 1.125 C12.495 2.115 12.495 2.115 13 3.125 C13.60585938 3.39570312 14.21171875 3.66640625 14.8359375 3.9453125 C17.6629286 5.48637985 18.83413994 7.34132229 20.625 10 C21.21539063 10.86367187 21.80578125 11.72734375 22.4140625 12.6171875 C23.19910156 13.85855469 23.19910156 13.85855469 24 15.125 C24.58974609 16.02992187 24.58974609 16.02992187 25.19140625 16.953125 C26.41917491 20.25089975 26.32842198 23.52900943 26.3125 27 C26.32861328 27.69480469 26.34472656 28.38960937 26.36132812 29.10546875 C26.36774863 35.92404289 24.02481395 40.33339245 19.5625 45.3125 C18.98628906 45.96605469 18.41007813 46.61960938 17.81640625 47.29296875 C15.9586267 49.1667292 14.24262491 50.72930087 12 52.125 C10.68 52.125 9.36 52.125 8 52.125 C8 52.785 8 53.445 8 54.125 C-3.13812661 54.7468557 -11.37008981 54.67978962 -20.3125 47.1875 C-25.96483734 41.85815336 -28.22111243 37.6118131 -28.48144531 29.84155273 C-28.549352 21.27190791 -28.10034745 13.82698723 -22 7.125 C-19.796875 6.34765625 -19.796875 6.34765625 -18 6.125 C-18 5.465 -18 4.805 -18 4.125 C-11.65535985 0.80848356 -7.13417638 -0.0387727 0 0 Z " fill="#7E8FAE" transform="translate(534,77.875)"/>
<path d="M0 0 C4.62 0 9.24 0 14 0 C14 10.23 14 20.46 14 31 C20.0084464 27.39493216 21.78583177 24.6425047 24 18 C24.66 18 25.32 18 26 18 C26.38865234 17.12021484 26.38865234 17.12021484 26.78515625 16.22265625 C28.08524984 13.84402842 29.48874838 12.31081607 31.4375 10.4375 C32.03433594 9.85871094 32.63117187 9.27992187 33.24609375 8.68359375 C34.11427734 7.85021484 34.11427734 7.85021484 35 7 C35.47050781 6.47921875 35.94101562 5.9584375 36.42578125 5.421875 C38.39241315 3.64556231 40.29686098 2.80670696 42.75 1.8125 C43.56984375 1.46832031 44.3896875 1.12414062 45.234375 0.76953125 C48 0 48 0 55 0 C55 17.82 55 35.64 55 54 C51.04 54 47.08 54 43 54 C42 53 42 53 41.88647461 50.04077148 C41.89171143 48.74727783 41.89694824 47.45378418 41.90234375 46.12109375 C41.9037587 45.4344313 41.90517365 44.74776886 41.90663147 44.04029846 C41.91224521 41.83932199 41.92479993 39.63844591 41.9375 37.4375 C41.94251324 35.94856917 41.94707645 34.45963676 41.95117188 32.97070312 C41.96221907 29.31376925 41.97949287 25.65689442 42 22 C36.75403318 24.96474021 35.08324925 27.74323073 32.5 33.125 C31.14855372 35.71527204 30.00801319 36.99198681 28 39 C27.71125 39.78375 27.4225 40.5675 27.125 41.375 C25.23772582 45.77863974 22.74538431 48.23591521 18.33203125 50.16796875 C15.57137188 51.17814397 12.8029783 52.11484896 10 53 C8.515 53.495 8.515 53.495 7 54 C4.69 54 2.38 54 0 54 C0 36.18 0 18.36 0 0 Z " fill="#7D90AD" transform="translate(568,78)"/>
<path d="M0 0 C3.67915251 0.06380033 5.88472247 0.39536599 8.75 2.75 C12.36299376 6.6339683 13.62280578 9.48072726 14.6875 14.5 C15.23102599 16.73481913 15.23102599 16.73481913 17.25 19.4375 C18.05363217 22.15554388 18.70697558 24.89329585 19.37109375 27.6484375 C20.14108779 30.47885185 20.14108779 30.47885185 21.74609375 32.8984375 C23.46638107 35.80281869 24.13848864 38.40152622 24.875 41.6875 C25.45120279 45.36870406 25.45120279 45.36870406 27.25 48.4375 C27.29080783 50.43708364 27.29254356 52.43795254 27.25 54.4375 C24.77076199 54.46435095 22.2918116 54.48426547 19.8125 54.5 C19.10544922 54.50837891 18.39839844 54.51675781 17.66992188 54.52539062 C15.86306441 54.53403588 14.05612397 54.48970011 12.25 54.4375 C11.25 53.4375 11.25 53.4375 10.25 45.4375 C4.31 45.1075 -1.63 44.7775 -7.75 44.4375 C-8.08 46.7475 -8.41 49.0575 -8.75 51.4375 C-9.41 51.4375 -10.07 51.4375 -10.75 51.4375 C-10.75 52.4275 -10.75 53.4175 -10.75 54.4375 C-16.03 54.4375 -21.31 54.4375 -26.75 54.4375 C-26.06481846 51.0115923 -25.3451706 47.77572143 -24.375 44.4375 C-24.14039063 43.6125 -23.90578125 42.7875 -23.6640625 41.9375 C-22.75 39.4375 -22.75 39.4375 -21.2421875 37 C-19.57876664 34.1434448 -18.94078925 31.66118318 -18.25 28.4375 C-17.33338422 24.15995971 -16.05542684 21.13942561 -13.75 17.4375 C-13.22334463 15.97456841 -12.741407 14.49451447 -12.3125 13 C-10.26867816 6.54582578 -7.42456925 0.1912389 0 0 Z " fill="#2F3451" transform="translate(472.75,77.5625)"/>
<path d="M0 0 C0.6436853 0.00402832 1.28737061 0.00805664 1.95056152 0.01220703 C4.33582406 0.03300343 6.72067755 0.08884895 9.10546875 0.140625 C17.11828125 0.264375 17.11828125 0.264375 25.29296875 0.390625 C25.29296875 18.210625 25.29296875 36.030625 25.29296875 54.390625 C21.00296875 54.390625 16.71296875 54.390625 12.29296875 54.390625 C11.29296875 53.390625 11.29296875 53.390625 11.17271423 51.63792419 C11.17493484 50.87625443 11.17715546 50.11458466 11.17944336 49.32983398 C11.17951889 48.46901718 11.17959442 47.60820038 11.17967224 46.72129822 C11.18483353 45.78588699 11.18999481 44.85047577 11.1953125 43.88671875 C11.19672745 42.93370377 11.1981424 41.98068878 11.19960022 40.99879456 C11.20521723 37.94187335 11.21777259 34.88502423 11.23046875 31.828125 C11.23548156 29.76106876 11.24004484 27.69401138 11.24414062 25.62695312 C11.25519219 20.54814912 11.2724682 15.4693993 11.29296875 10.390625 C9.50056212 10.50452375 7.7090204 10.63210187 5.91796875 10.765625 C4.92023437 10.83523437 3.9225 10.90484375 2.89453125 10.9765625 C0.13787996 11.15426464 0.13787996 11.15426464 -1.70703125 13.390625 C-1.89156628 15.8262617 -1.95984951 18.15797829 -1.9453125 20.59375 C-1.96073989 22.06381123 -1.97704408 23.53386348 -1.99414062 25.00390625 C-2.01055487 27.31904942 -2.019553 29.63353424 -2.01245117 31.94873047 C-2.00981876 34.18532326 -2.03804425 36.41992421 -2.0703125 38.65625 C-2.06010574 39.3408429 -2.04989899 40.02543579 -2.03938293 40.73077393 C-2.15226863 46.32704256 -3.87627567 48.60427677 -7.70703125 52.390625 C-12.55232894 54.79268476 -17.29643208 54.63208735 -22.58203125 54.515625 C-23.75765625 54.50208984 -23.75765625 54.50208984 -24.95703125 54.48828125 C-26.8738318 54.46490563 -28.79047316 54.42904153 -30.70703125 54.390625 C-30.70703125 51.090625 -30.70703125 47.790625 -30.70703125 44.390625 C-29.11890625 44.266875 -27.53078125 44.143125 -25.89453125 44.015625 C-22.21360594 43.72879965 -20.86943707 43.49889555 -17.70703125 41.390625 C-17.26057425 38.17219995 -17.26057425 38.17219995 -17.3359375 34.37109375 C-17.31854767 32.94205499 -17.30096337 31.51301858 -17.28320312 30.08398438 C-17.27314882 27.83255534 -17.26952885 25.58128448 -17.27124023 23.32983398 C-17.26765753 21.15560989 -17.24026196 18.9826007 -17.2109375 16.80859375 C-17.20908447 15.50688232 -17.20723145 14.2051709 -17.20532227 12.86401367 C-16.61796225 8.7697604 -15.6014369 7.29184612 -12.70703125 4.390625 C-11.95848877 3.63555664 -11.20994629 2.88048828 -10.4387207 2.10253906 C-6.92877356 -0.09709892 -4.00984548 -0.11945121 0 0 Z " fill="#8194AF" transform="translate(660.70703125,77.609375)"/>
<path d="M0 0 C11.55 0 23.1 0 35 0 C35 2.97 35 5.94 35 9 C34 10 34 10 32.05053711 10.11352539 C31.2178833 10.10828857 30.38522949 10.10305176 29.52734375 10.09765625 C28.62822266 10.09443359 27.72910156 10.09121094 26.80273438 10.08789062 C25.85720703 10.07951172 24.91167969 10.07113281 23.9375 10.0625 C22.98810547 10.05798828 22.03871094 10.05347656 21.06054688 10.04882812 C18.70700469 10.03700128 16.35349468 10.01906521 14 10 C14 13.96 14 17.92 14 22 C20.93 22 27.86 22 35 22 C35 24.97 35 27.94 35 31 C34 32 34 32 32.05053711 32.11352539 C30.8015564 32.10567017 30.8015564 32.10567017 29.52734375 32.09765625 C28.62822266 32.09443359 27.72910156 32.09121094 26.80273438 32.08789062 C25.38444336 32.07532227 25.38444336 32.07532227 23.9375 32.0625 C22.98810547 32.05798828 22.03871094 32.05347656 21.06054688 32.04882812 C18.70696935 32.0370011 16.35351523 32.02052025 14 32 C14.28241641 33.46015291 14.57626614 34.91809793 14.875 36.375 C15.03742188 37.18710938 15.19984375 37.99921875 15.3671875 38.8359375 C15.86658932 41.18673923 15.86658932 41.18673923 18 43 C19.93257855 43.36831081 19.93257855 43.36831081 22.1328125 43.4140625 C22.93847656 43.45273438 23.74414062 43.49140625 24.57421875 43.53125 C25.83685547 43.57765625 25.83685547 43.57765625 27.125 43.625 C28.39923828 43.68300781 28.39923828 43.68300781 29.69921875 43.7421875 C31.79911684 43.83656494 33.89952891 43.91937586 36 44 C36 47.3 36 50.6 36 54 C31.79190116 54.11656783 27.58422004 54.18737611 23.375 54.25 C21.59029297 54.30027344 21.59029297 54.30027344 19.76953125 54.3515625 C8.58034318 54.47658136 8.58034318 54.47658136 4 50 C-0.51696789 44.66987417 -0.53827818 40.45095808 -0.390625 33.7890625 C-0.38496521 32.82092621 -0.37930542 31.85278992 -0.37347412 30.85531616 C-0.35117112 27.77803071 -0.30098556 24.7019306 -0.25 21.625 C-0.22992717 19.53256896 -0.21167777 17.44011957 -0.1953125 15.34765625 C-0.15473594 10.23095224 -0.07643345 5.11679513 0 0 Z " fill="#272B4C" transform="translate(244,78)"/>
<path d="M0 0 C3.3 0 6.6 0 10 0 C10 14.19 10 28.38 10 43 C15.94 43.33 21.88 43.66 28 44 C28 29.48 28 14.96 28 0 C31.3 0 34.6 0 38 0 C38 17.16 38 34.32 38 52 C24.47 52 10.94 52 -3 52 C-4 49 -4 49 -3.1875 46.9375 C-2 45 -2 45 0 43 C0.29120273 41.06131877 0.29120273 41.06131877 0.22705078 38.82568359 C0.22689972 37.96494232 0.22674866 37.10420105 0.22659302 36.21737671 C0.21627045 35.28712677 0.20594788 34.35687683 0.1953125 33.3984375 C0.1924826 32.44683746 0.18965271 31.49523743 0.18673706 30.51480103 C0.17551989 27.46807408 0.15041263 24.42163846 0.125 21.375 C0.11497218 19.31250424 0.10584599 17.25000388 0.09765625 15.1875 C0.07557554 10.12488733 0.0410353 5.0624931 0 0 Z " fill="#262A4A" transform="translate(319,79)"/>
<path d="M0 0 C3.96 0 7.92 0 12 0 C12 17.16 12 34.32 12 52 C3.75 52 -4.5 52 -13 52 C-12 47 -12 47 -11 44 C-6.05 43.505 -6.05 43.505 -1 43 C-0.67 28.81 -0.34 14.62 0 0 Z " fill="#292B4A" transform="translate(221,79)"/>
<path d="M0 0 C3.96 0 7.92 0 12 0 C12.01981934 1.16571533 12.03963867 2.33143066 12.06005859 3.5324707 C12.13608959 7.85446905 12.22481076 12.17612962 12.31738281 16.49780273 C12.35568294 18.36882868 12.390534 20.23992853 12.421875 22.11108398 C12.46750324 24.79958519 12.52550088 27.48757723 12.5859375 30.17578125 C12.59748871 31.01337479 12.60903992 31.85096832 12.62094116 32.71394348 C12.72046457 36.62373037 12.7847302 38.6770953 15 42 C16.94832935 43.00168531 16.94832935 43.00168531 19.125 43.6875 C20.21167969 44.06455078 20.21167969 44.06455078 21.3203125 44.44921875 C21.87460938 44.63097656 22.42890625 44.81273437 23 45 C23 47 23 47 21.625 48.5 C21.08875 48.995 20.5525 49.49 20 50 C19.34 50.66 18.68 51.32 18 52 C12.21950498 52.38536633 7.00073503 52.27641968 2.1875 48.625 C-0.04054652 45.57609423 -0.12434792 42.27829305 -0.11352539 38.59863281 C-0.11344986 37.7380426 -0.11337433 36.87745239 -0.11329651 35.99078369 C-0.10813522 35.07085632 -0.10297394 34.15092896 -0.09765625 33.203125 C-0.0962413 32.25435486 -0.09482635 31.30558472 -0.09336853 30.32806396 C-0.08777742 27.30201038 -0.07522652 24.27603117 -0.0625 21.25 C-0.05748385 19.19661565 -0.05292115 17.14323014 -0.04882812 15.08984375 C-0.03781089 10.05986724 -0.02055233 5.02994622 0 0 Z " fill="#2B2F4C" transform="translate(165,79)"/>
<path d="M0 0 C1.64574566 -0.02688151 3.29161413 -0.04634123 4.9375 -0.0625 C5.85402344 -0.07410156 6.77054688 -0.08570313 7.71484375 -0.09765625 C10 0 10 0 11 1 C12.99943335 1.04760556 15.00034285 1.03703069 17 1 C22.43907802 0.95202577 27.61447813 1.26975975 33 2 C33 2.66 33 3.32 33 4 C34.32 4 35.64 4 37 4 C37.495 5.485 37.495 5.485 38 7 C32.125 5.125 32.125 5.125 31 4 C29.62000063 3.90134884 28.23508201 3.86920977 26.8515625 3.8671875 C25.59085938 3.86525391 25.59085938 3.86525391 24.3046875 3.86328125 C23.42039062 3.86714844 22.53609375 3.87101562 21.625 3.875 C20.7484375 3.87113281 19.871875 3.86726563 18.96875 3.86328125 C17.70417969 3.86521484 17.70417969 3.86521484 16.4140625 3.8671875 C15.6401416 3.86831543 14.8662207 3.86944336 14.06884766 3.87060547 C11.80173426 3.92364853 11.80173426 3.92364853 9 5 C9 5.66 9 6.32 9 7 C8.34 7 7.68 7 7 7 C7 7.66 7 8.32 7 9 C6.01 9.66 5.02 10.32 4 11 C1.97629499 14.87532625 1.63721259 18.48599231 1.375 22.8125 C1.26285156 24.55466797 1.26285156 24.55466797 1.1484375 26.33203125 C1.09945312 27.21246094 1.05046875 28.09289062 1 29 C1.66 29 2.32 29 3 29 C3.45375 29.969375 3.9075 30.93875 4.375 31.9375 C5.65786221 35.07079582 5.65786221 35.07079582 8 36 C8 36.66 8 37.32 8 38 C8.66 38 9.32 38 10 38 C10.391875 38.886875 10.78375 39.77375 11.1875 40.6875 C13.10971336 44.20051062 15.11223546 46.24349749 18 49 C25.09716782 56.39634586 31.29031203 63.35923086 31.625 74 C31.28167223 81.50416422 29.69145396 87.85997037 24.75 93.625 C23.88375 94.305625 23.88375 94.305625 23 95 C25.64 94.67 28.28 94.34 31 94 C30.67 94.66 30.34 95.32 30 96 C19.29178229 98.14911874 7.79929205 96.69985442 -3 96 C-3.33 95.34 -3.66 94.68 -4 94 C-3.44538086 94.01571045 -2.89076172 94.0314209 -2.31933594 94.04760742 C0.20367152 94.11012862 2.72651576 94.14904342 5.25 94.1875 C6.12269531 94.21263672 6.99539062 94.23777344 7.89453125 94.26367188 C12.93929613 94.39924843 12.93929613 94.39924843 17.484375 92.48828125 C18.23460937 91.75158203 18.23460937 91.75158203 19 91 C19.66 91 20.32 91 21 91 C21 90.34 21 89.68 21 89 C22.31200404 87.64567325 23.64631404 86.31266518 25 85 C26.3974093 82.20518141 26.13211589 79.86675981 26.125 76.75 C26.12757812 75.63109375 26.13015625 74.5121875 26.1328125 73.359375 C26.00608539 70.15392456 25.6008965 67.14755311 25 64 C23.515 63.505 23.515 63.505 22 63 C19 59.55555556 19 59.55555556 19 57 C18.46246094 56.79503906 17.92492187 56.59007812 17.37109375 56.37890625 C14.04038311 54.44193614 11.63646346 51.75538419 9.0625 48.9375 C8.52906982 48.35621338 7.99563965 47.77492676 7.44604492 47.17602539 C-0.78670174 37.99320026 -3.31192065 30.69716712 -3.22265625 18.4296875 C-2.89112584 13.32295589 -1.67719385 10.07972038 1.5625 6.0625 C3 5 3 5 5 5 C5 4.34 5 3.68 5 3 C3.02 3 1.04 3 -1 3 C-0.67 2.01 -0.34 1.02 0 0 Z " fill="#CAD1DC" transform="translate(81,49)"/>
<path d="M0 0 C0.85464844 -0.01417969 1.70929687 -0.02835937 2.58984375 -0.04296875 C5.26075557 0.2059788 6.84182148 0.69214377 9.0625 2.1875 C9.3925 3.1775 9.7225 4.1675 10.0625 5.1875 C11.0525 5.8475 12.0425 6.5075 13.0625 7.1875 C14.35971449 11.07914348 14.19283993 14.08179226 14.0625 18.1875 C13.7325 18.8475 13.4025 19.5075 13.0625 20.1875 C12.4025 20.1875 11.7425 20.1875 11.0625 20.1875 C11.02125 20.785625 10.98 21.38375 10.9375 22 C10.0625 24.1875 10.0625 24.1875 7.625 25.9375 C2.21838495 27.83455791 -2.67437578 28.40465113 -8.13671875 26.3671875 C-10.52903146 24.82407302 -11.59507736 23.71843695 -12.9375 21.1875 C-13.80114768 16.07291114 -13.99373203 11.30573076 -12.9375 6.1875 C-9.03487097 1.38674939 -6.0639536 0.04559364 0 0 Z " fill="#F5F9F9" transform="translate(532.9375,90.8125)"/>
<path d="M0 0 C3.63 0 7.26 0 11 0 C11 17.16 11 34.32 11 52 C7.7 52 4.4 52 1 52 C1 37.81 1 23.62 1 9 C0.34 8.67 -0.32 8.34 -1 8 C-0.34 7.34 0.32 6.68 1 6 C0.67 5.67 0.34 5.34 0 5 C0 3.35 0 1.7 0 0 Z " fill="#262A4C" transform="translate(426,79)"/>
<path d="M0 0 C11.55 0 23.1 0 35 0 C35 2.97 35 5.94 35 9 C34 10 34 10 32.05053711 10.11352539 C31.2178833 10.10828857 30.38522949 10.10305176 29.52734375 10.09765625 C28.62822266 10.09443359 27.72910156 10.09121094 26.80273438 10.08789062 C25.85720703 10.07951172 24.91167969 10.07113281 23.9375 10.0625 C22.98810547 10.05798828 22.03871094 10.05347656 21.06054688 10.04882812 C18.70696935 10.0370011 16.35351523 10.02052025 14 10 C14 9.34 14 8.68 14 8 C16.22843488 7.80399423 18.45779893 7.61853431 20.6875 7.4375 C22.54955078 7.28087891 22.54955078 7.28087891 24.44921875 7.12109375 C27.55835533 7.01506159 30.00810972 7.22771475 33 8 C33 5.69 33 3.38 33 1 C22.77 1 12.54 1 2 1 C2.56867801 20.22205778 2.56867801 20.22205778 3.9140625 39.3984375 C4.00327233 42.09906238 3.63781796 44.38209048 3 47 C4.32 47.33 5.64 47.66 7 48 C7 48.66 7 49.32 7 50 C7.66 50 8.32 50 9 50 C8.67 48.68 8.34 47.36 8 46 C7.34 46 6.68 46 6 46 C6 45.34 6 44.68 6 44 C8.64 44 11.28 44 14 44 C13.67 43.34 13.34 42.68 13 42 C12.93003986 40.29297265 12.91559846 38.58331997 12.9375 36.875 C12.94652344 35.96492188 12.95554687 35.05484375 12.96484375 34.1171875 C12.97644531 33.41851562 12.98804688 32.71984375 13 32 C13.33 32 13.66 32 14 32 C14.12117188 32.62648437 14.24234375 33.25296875 14.3671875 33.8984375 C14.53476562 34.71570313 14.70234375 35.53296875 14.875 36.375 C15.03742188 37.18710938 15.19984375 37.99921875 15.3671875 38.8359375 C15.86658932 41.18673923 15.86658932 41.18673923 18 43 C19.93257855 43.36831081 19.93257855 43.36831081 22.1328125 43.4140625 C22.93847656 43.45273438 23.74414062 43.49140625 24.57421875 43.53125 C25.83685547 43.57765625 25.83685547 43.57765625 27.125 43.625 C28.39923828 43.68300781 28.39923828 43.68300781 29.69921875 43.7421875 C31.79911684 43.83656494 33.89952891 43.91937586 36 44 C36 47.3 36 50.6 36 54 C31.79190116 54.11656783 27.58422004 54.18737611 23.375 54.25 C21.59029297 54.30027344 21.59029297 54.30027344 19.76953125 54.3515625 C8.58034318 54.47658136 8.58034318 54.47658136 4 50 C-0.51696789 44.66987417 -0.53827818 40.45095808 -0.390625 33.7890625 C-0.38496521 32.82092621 -0.37930542 31.85278992 -0.37347412 30.85531616 C-0.35117112 27.77803071 -0.30098556 24.7019306 -0.25 21.625 C-0.22992717 19.53256896 -0.21167777 17.44011957 -0.1953125 15.34765625 C-0.15473594 10.23095224 -0.07643345 5.11679513 0 0 Z " fill="#3F4159" transform="translate(244,78)"/>
<path d="M0 0 C0.66 0 1.32 0 2 0 C2.19335938 0.74765625 2.38671875 1.4953125 2.5859375 2.265625 C2.97652344 3.74289063 2.97652344 3.74289063 3.375 5.25 C3.63023437 6.22453125 3.88546875 7.1990625 4.1484375 8.203125 C4.90223288 10.67889331 5.66948478 12.78586018 7 15 C7.66 15.33 8.32 15.66 9 16 C10.74267158 20.16304878 11.08755561 23.52841008 11 28 C8.52076199 28.02685095 6.0418116 28.04676547 3.5625 28.0625 C2.85544922 28.07087891 2.14839844 28.07925781 1.41992188 28.08789062 C-0.38693559 28.09653588 -2.19387603 28.05220011 -4 28 C-5.86127406 26.13872594 -5.46118139 23.50070864 -5.71875 21.0078125 C-5.9662595 18.79861215 -5.9662595 18.79861215 -7 16 C-7.66 16 -8.32 16 -9 16 C-9 15.34 -9 14.68 -9 14 C-9.66 14 -10.32 14 -11 14 C-11 14.66 -11 15.32 -11 16 C-12.32 15.67 -13.64 15.34 -15 15 C-15 14.01 -15 13.02 -15 12 C-16.32 12 -17.64 12 -19 12 C-19 11.34 -19 10.68 -19 10 C-18.0925 10.020625 -17.185 10.04125 -16.25 10.0625 C-13.57327412 10.0110245 -11.53011948 9.7784983 -9 9 C-9 7.35 -9 5.7 -9 4 C-6.36 4.33 -3.72 4.66 -1 5 C-0.67 3.35 -0.34 1.7 0 0 Z " fill="#2D3150" transform="translate(489,104)"/>
<path d="M0 0 C1.258125 -0.01675781 2.51625 -0.03351563 3.8125 -0.05078125 C4.864375 0.06910156 5.91625 0.18898438 7 0.3125 C9.23077928 3.65866892 9.24524037 4.70843959 9.22705078 8.61010742 C9.22689972 9.69100143 9.22674866 10.77189545 9.22659302 11.88554382 C9.21627045 13.05124405 9.20594788 14.21694427 9.1953125 15.41796875 C9.1924826 16.61231033 9.18965271 17.80665192 9.18673706 19.03718567 C9.17552677 22.85822497 9.15042037 26.67903134 9.125 30.5 C9.11497131 33.08788724 9.10584527 35.67577816 9.09765625 38.26367188 C9.07558465 44.61336096 9.0420986 50.96291384 9 57.3125 C8.34 57.3125 7.68 57.3125 7 57.3125 C7 39.4925 7 21.6725 7 3.3125 C2.38 3.3125 -2.24 3.3125 -7 3.3125 C-6.99214478 5.25854126 -6.99214478 5.25854126 -6.98413086 7.24389648 C-6.96608531 12.03897415 -6.95456963 16.8340488 -6.94506836 21.62915039 C-6.94002712 23.70793156 -6.93319426 25.78670916 -6.92456055 27.86547852 C-6.91248578 30.84652586 -6.90676976 33.82752649 -6.90234375 36.80859375 C-6.89718246 37.74400497 -6.89202118 38.6794162 -6.88670349 39.64317322 C-6.88659019 40.93439842 -6.88659019 40.93439842 -6.88647461 42.25170898 C-6.884254 43.01337875 -6.88203339 43.77504852 -6.87974548 44.55979919 C-7 46.3125 -7 46.3125 -8 47.3125 C-12.29 47.3125 -16.58 47.3125 -21 47.3125 C-21 32.7925 -21 18.2725 -21 3.3125 C-25.29 3.3125 -29.58 3.3125 -34 3.3125 C-34 2.6525 -34 1.9925 -34 1.3125 C-31.87527424 1.25863371 -29.75016348 1.21976929 -27.625 1.1875 C-26.44164062 1.16429688 -25.25828125 1.14109375 -24.0390625 1.1171875 C-21 1.3125 -21 1.3125 -19 3.3125 C-18.75949097 5.18545532 -18.75949097 5.18545532 -18.77294922 7.48681641 C-18.77317581 8.77792831 -18.77317581 8.77792831 -18.77340698 10.09512329 C-18.78372955 11.02537323 -18.79405212 11.95562317 -18.8046875 12.9140625 C-18.8075174 13.86566254 -18.81034729 14.81726257 -18.81326294 15.79769897 C-18.82448011 18.84442592 -18.84958737 21.89086154 -18.875 24.9375 C-18.88502782 26.99999576 -18.89415401 29.06249612 -18.90234375 31.125 C-18.92442446 36.18761267 -18.9589647 41.2500069 -19 46.3125 C-15.7 46.3125 -12.4 46.3125 -9 46.3125 C-9.01047363 44.99008301 -9.02094727 43.66766602 -9.03173828 42.30517578 C-9.06786547 37.41132298 -9.09087389 32.51748202 -9.10986328 27.62353516 C-9.11993751 25.5030723 -9.13359733 23.38262339 -9.15087891 21.26220703 C-9.17506489 18.21904057 -9.18646869 15.17605734 -9.1953125 12.1328125 C-9.20563507 11.18068878 -9.21595764 10.22856506 -9.22659302 9.24758911 C-9.22674408 8.36682709 -9.22689514 7.48606506 -9.22705078 6.57861328 C-9.231492 5.80139923 -9.23593323 5.02418518 -9.24050903 4.22341919 C-8.59481139 -0.90684975 -4.09954914 0.01260107 0 0 Z " fill="#C5C5D0" transform="translate(352,74.6875)"/>
<path d="M0 0 C1.90072266 0.02126953 1.90072266 0.02126953 3.83984375 0.04296875 C5.74443359 0.05263672 5.74443359 0.05263672 7.6875 0.0625 C10.77734375 0.23046875 10.77734375 0.23046875 11.77734375 1.23046875 C11.92539252 4.31965142 12.01249918 7.38926019 12.05859375 10.48046875 C12.08620789 11.87313965 12.08620789 11.87313965 12.11437988 13.29394531 C12.19335032 17.28438372 12.26089663 21.27499859 12.32958984 25.265625 C12.38119495 28.17066117 12.43849441 31.07554628 12.49609375 33.98046875 C12.50966919 34.89086914 12.52324463 35.80126953 12.53723145 36.73925781 C12.21026697 40.8098186 12.21026697 40.8098186 13.77734375 44.23046875 C16.74734375 44.56046875 19.71734375 44.89046875 22.77734375 45.23046875 C22.77734375 31.37046875 22.77734375 17.51046875 22.77734375 3.23046875 C23.43734375 2.90046875 24.09734375 2.57046875 24.77734375 2.23046875 C24.77734375 16.75046875 24.77734375 31.27046875 24.77734375 46.23046875 C12.77734375 46.23046875 12.77734375 46.23046875 9.77734375 44.23046875 C9.4165802 42.39547729 9.4165802 42.39547729 9.43676758 40.14794922 C9.43699417 39.3072287 9.43722076 38.46650818 9.43745422 37.60031128 C9.45293808 36.69193512 9.46842194 35.78355896 9.484375 34.84765625 C9.48861984 33.91825226 9.49286469 32.98884827 9.49723816 32.03128052 C9.51406363 29.05571819 9.55172272 26.08082719 9.58984375 23.10546875 C9.60488559 21.0911556 9.61857487 19.07683186 9.63085938 17.0625 C9.66397981 12.11822996 9.71578846 7.17446326 9.77734375 2.23046875 C5.48734375 2.23046875 1.19734375 2.23046875 -3.22265625 2.23046875 C-3.12921027 8.86931159 -3.02313583 15.50778589 -2.90527344 22.14624023 C-2.86695404 24.40529834 -2.83210644 26.66441807 -2.80078125 28.92358398 C-2.75519518 32.16803032 -2.69718987 35.41205123 -2.63671875 38.65625 C-2.62516754 39.66883377 -2.61361633 40.68141754 -2.60171509 41.72468567 C-2.5818454 42.66543442 -2.56197571 43.60618317 -2.54150391 44.57543945 C-2.52818024 45.40372757 -2.51485657 46.23201569 -2.50112915 47.08540344 C-2.34526866 49.52643008 -2.34526866 49.52643008 -0.22265625 52.23046875 C-2.16015625 51.60546875 -2.16015625 51.60546875 -4.22265625 50.23046875 C-5.51106233 45.06463688 -5.38394609 39.81764114 -5.390625 34.52734375 C-5.3956176 33.14884247 -5.3956176 33.14884247 -5.40071106 31.74249268 C-5.40575475 29.80945331 -5.40812018 27.87640531 -5.40795898 25.94335938 C-5.41015925 22.97641951 -5.42837927 20.0098436 -5.44726562 17.04296875 C-5.45019726 15.16276169 -5.45218359 13.28255286 -5.453125 11.40234375 C-5.46031052 10.51278992 -5.46749603 9.62323608 -5.47489929 8.70672607 C-5.44374391 0.38931017 -5.44374391 0.38931017 0 0 Z " fill="#B3B4C2" transform="translate(293.22265625,75.76953125)"/>
<path d="M0 0 C1.69295345 1.69295345 1.12749729 3.82896484 1.12939453 6.14648438 C1.13254669 7.24432251 1.13569885 8.34216064 1.13894653 9.4732666 C1.1369223 10.66802612 1.13489807 11.86278564 1.1328125 13.09375 C1.13424759 14.91924377 1.13424759 14.91924377 1.13571167 16.78161621 C1.13639372 19.36075899 1.13453772 21.93990347 1.13037109 24.51904297 C1.12502322 28.48278636 1.13031529 32.44641642 1.13671875 36.41015625 C1.13605797 38.90885442 1.13477682 41.40755252 1.1328125 43.90625 C1.13483673 45.10100952 1.13686096 46.29576904 1.13894653 47.5267334 C1.13579437 48.62457153 1.13264221 49.72240967 1.12939453 50.85351562 C1.12859894 51.8253479 1.12780334 52.79718018 1.12698364 53.79846191 C1 56 1 56 0 57 C-2.2898821 57.09956009 -4.58295937 57.1296872 -6.875 57.125 C-8.13054688 57.12757813 -9.38609375 57.13015625 -10.6796875 57.1328125 C-14 57 -14 57 -17 56 C-17 47.09 -17 38.18 -17 29 C-17.66 29 -18.32 29 -19 29 C-19.268125 29.61875 -19.53625 30.2375 -19.8125 30.875 C-21 33 -21 33 -24 35 C-22.34185057 31.40734291 -20.38641889 28.15849558 -18 25 C-16.68 24.67 -15.36 24.34 -14 24 C-13.505 39.345 -13.505 39.345 -13 55 C-9.04 55.33 -5.08 55.66 -1 56 C-1 38.18 -1 20.36 -1 2 C-6.80596571 2.68522119 -6.80596571 2.68522119 -11.75 4.5625 C-15 6 -15 6 -18 6 C-18.33 6.99 -18.66 7.98 -19 9 C-19.99 9.33 -20.98 9.66 -22 10 C-22 9.34 -22 8.68 -22 8 C-21.34 8 -20.68 8 -20 8 C-20 6.68 -20 5.36 -20 4 C-18.27255984 3.34956281 -16.5429631 2.70485156 -14.8125 2.0625 C-13.84957031 1.70285156 -12.88664063 1.34320313 -11.89453125 0.97265625 C-7.6719317 -0.44627396 -4.2986571 -1.53523468 0 0 Z " fill="#D0D8E3" transform="translate(624,76)"/>
<path d="M0 0 C4.62 0 9.24 0 14 0 C14 17.82 14 35.64 14 54 C6.27009412 54.06295851 -1.45888007 54.12305706 -9.18881989 54.15525055 C-12.78867086 54.17107449 -16.38830899 54.19221082 -19.98803711 54.22631836 C-23.45694391 54.25897965 -26.92564464 54.27686714 -30.39469337 54.28463173 C-32.35838752 54.29285018 -34.32199908 54.31625892 -36.28556824 54.33988953 C-37.4864357 54.34011612 -38.68730316 54.34034271 -39.92456055 54.34057617 C-40.97935104 54.34723801 -42.03414154 54.35389984 -43.12089539 54.36076355 C-46.40434683 53.94933369 -48.30812723 52.87734661 -51 51 C-50.01 50.505 -50.01 50.505 -49 50 C-47.84346924 50.45125244 -47.84346924 50.45125244 -46.66357422 50.91162109 C-41.26535508 52.51533034 -35.98707674 52.35883123 -30.3828125 52.4140625 C-29.17051971 52.43342865 -27.95822693 52.4527948 -26.709198 52.4727478 C-22.84786961 52.53239315 -18.98651117 52.57886945 -15.125 52.625 C-12.50259137 52.66319356 -9.88019509 52.70224609 -7.2578125 52.7421875 C-0.83860699 52.83969442 5.58047129 52.91938464 12 53 C12 35.84 12 18.68 12 1 C8.7 1 5.4 1 2 1 C2 15.52 2 30.04 2 45 C-3.28 45 -8.56 45 -14 45 C-14 44.67 -14 44.34 -14 44 C-7.565 43.505 -7.565 43.505 -1 43 C-0.67 28.81 -0.34 14.62 0 0 Z " fill="#676A7E" transform="translate(345,78)"/>
<path d="M0 0 C12.21 0 24.42 0 37 0 C37 3.96 37 7.92 37 12 C30.4 12 23.8 12 17 12 C17 14.97 17 17.94 17 21 C18.43214844 20.98839844 19.86429687 20.97679688 21.33984375 20.96484375 C23.20572787 20.95546745 25.07161339 20.94636708 26.9375 20.9375 C27.88302734 20.92912109 28.82855469 20.92074219 29.80273438 20.91210938 C31.15141602 20.90727539 31.15141602 20.90727539 32.52734375 20.90234375 C33.77632446 20.89448853 33.77632446 20.89448853 35.05053711 20.88647461 C37 21 37 21 38 22 C38.09851171 23.83115883 38.12972629 25.66619933 38.125 27.5 C38.12886719 29.00046875 38.12886719 29.00046875 38.1328125 30.53125 C38 33 38 33 37 34 C35.43827255 34.08685603 33.87270656 34.10702219 32.30859375 34.09765625 C31.36435547 34.09443359 30.42011719 34.09121094 29.44726562 34.08789062 C28.45404297 34.07951172 27.46082031 34.07113281 26.4375 34.0625 C25.44041016 34.05798828 24.44332031 34.05347656 23.41601562 34.04882812 C20.94395151 34.03700007 18.47200482 34.02051849 16 34 C16 35.98 16 37.96 16 40 C15.67 40 15.34 40 15 40 C15 37.69 15 35.38 15 33 C24.9 32.505 24.9 32.505 35 32 C35.33 29.03 35.66 26.06 36 23 C29.07 23 22.14 23 15 23 C15 19.04 15 15.08 15 11 C24.9 10.505 24.9 10.505 35 10 C35.33 7.03 35.66 4.06 36 1 C24.45 1 12.9 1 1 1 C1.07408962 7.15710255 1.15700262 13.31277653 1.26245117 19.46923828 C1.29564549 21.56226124 1.32369445 23.65537253 1.34643555 25.74853516 C1.38008231 28.76242612 1.43240393 31.77551163 1.48828125 34.7890625 C1.49467117 35.72054108 1.5010611 36.65201965 1.50764465 37.61172485 C1.6249018 42.82741569 2.16877869 46.44499667 5 51 C4.01 51 3.02 51 2 51 C-0.14782833 47.77825751 -0.24649148 46.9566269 -0.22705078 43.25317383 C-0.22689972 42.29240433 -0.22674866 41.33163483 -0.22659302 40.3417511 C-0.21627045 39.30729355 -0.20594788 38.272836 -0.1953125 37.20703125 C-0.1924826 36.14586594 -0.18965271 35.08470062 -0.18673706 33.99137878 C-0.17553184 30.59830503 -0.15042647 27.20549413 -0.125 23.8125 C-0.11497065 21.51367568 -0.10584472 19.21484724 -0.09765625 16.91601562 C-0.07729202 11.27716072 -0.03814346 5.638875 0 0 Z " fill="#BDC0CD" transform="translate(243,77)"/>
<path d="M0 0 C0.33 0.66 0.66 1.32 1 2 C1.66 2 2.32 2 3 2 C3 11.24 3 20.48 3 30 C3.66 30 4.32 30 5 30 C5 29.34 5 28.68 5 28 C5.66 28 6.32 28 7 28 C7 27.01 7 26.02 7 25 C7.99 24.34 8.98 23.68 10 23 C10.33 22.01 10.66 21.02 11 20 C11.66 20 12.32 20 13 20 C13.33 19.01 13.66 18.02 14 17 C14.66 17.33 15.32 17.66 16 18 C15.34 18.99 14.68 19.98 14 21 C13.34 21 12.68 21 12 21 C11.95875 21.845625 11.9175 22.69125 11.875 23.5625 C10.74541414 28.00015872 8.50770248 31.05073771 5 34 C4.01 34 3.02 34 2 34 C2 23.77 2 13.54 2 3 C-2.62 3 -7.24 3 -12 3 C-12 20.82 -12 38.64 -12 57 C-8.04 56.34 -4.08 55.68 0 55 C-0.66 55.99 -1.32 56.98 -2 58 C-4.8203125 58.29296875 -4.8203125 58.29296875 -8.125 58.1875 C-9.76855469 58.14689453 -9.76855469 58.14689453 -11.4453125 58.10546875 C-12.70988281 58.05326172 -12.70988281 58.05326172 -14 58 C-14.92117662 54.88216709 -15.10427651 52.14088668 -15.0534668 48.89599609 C-15.0398259 47.88169525 -15.026185 46.86739441 -15.01213074 45.82235718 C-14.99136978 44.73371368 -14.97060883 43.64507019 -14.94921875 42.5234375 C-14.9303511 41.40184235 -14.91148346 40.28024719 -14.89204407 39.12466431 C-14.85019572 36.75590971 -14.80546178 34.38720459 -14.75805664 32.01855469 C-14.68764061 28.38226091 -14.63342708 24.74595429 -14.58007812 21.109375 C-14.53744812 18.80987727 -14.49386112 16.51039704 -14.44921875 14.2109375 C-14.43453049 13.11824554 -14.41984222 12.02555359 -14.40470886 10.89974976 C-14.38161148 9.89175323 -14.3585141 8.88375671 -14.3347168 7.84521484 C-14.31020699 6.51095963 -14.31020699 6.51095963 -14.28520203 5.14974976 C-14 3 -14 3 -12 1 C-9.1796875 0.5859375 -9.1796875 0.5859375 -5.875 0.375 C-4.77929688 0.30023438 -3.68359375 0.22546875 -2.5546875 0.1484375 C-1.71164062 0.09945312 -0.86859375 0.05046875 0 0 Z " fill="#D7E1EC" transform="translate(580,75)"/>
<path d="M0 0 C0.66 0 1.32 0 2 0 C2 17.82 2 35.64 2 54 C-2.95 54 -7.9 54 -13 54 C-13.33 41.79 -13.66 29.58 -14 17 C-14.66 17.33 -15.32 17.66 -16 18 C-15.125 12.25 -15.125 12.25 -14 10 C-13.01 10 -12.02 10 -11 10 C-11 24.19 -11 38.38 -11 53 C-7.37 53 -3.74 53 0 53 C0 35.51 0 18.02 0 0 Z " fill="#787C8E" transform="translate(438,78)"/>
<path d="M0 0 C4.62 0 9.24 0 14 0 C14 10.23 14 20.46 14 31 C14.66 31 15.32 31 16 31 C16 31.99 16 32.98 16 34 C14.68 33.67 13.36 33.34 12 33 C12 22.44 12 11.88 12 1 C8.37 1 4.74 1 1 1 C1 17.83 1 34.66 1 52 C2.485 51.505 2.485 51.505 4 51 C5.39439664 50.93334624 6.79169875 50.91461801 8.1875 50.9375 C9.445625 50.958125 10.70375 50.97875 12 51 C12 50.34 12 49.68 12 49 C13.0828125 48.6596875 13.0828125 48.6596875 14.1875 48.3125 C17.52439237 46.75528356 19.44948006 44.61945291 22 42 C22.66 42 23.32 42 24 42 C24.103125 41.360625 24.20625 40.72125 24.3125 40.0625 C24.539375 39.381875 24.76625 38.70125 25 38 C26.485 37.505 26.485 37.505 28 37 C26.82005367 42.47066028 25.63142469 45.50280176 21 49 C17.40107165 50.56498056 13.74023102 51.81887441 10 53 C8.515 53.495 8.515 53.495 7 54 C4.69 54 2.38 54 0 54 C0 36.18 0 18.36 0 0 Z " fill="#A3B0C1" transform="translate(568,78)"/>
<path d="M0 0 C7.26 0 14.52 0 22 0 C22.33 1.32 22.66 2.64 23 4 C22.34 3.67 21.68 3.34 21 3 C21 2.34 21 1.68 21 1 C14.4 1 7.8 1 1 1 C1 18.16 1 35.32 1 53 C4.63 53 8.26 53 12 53 C12 39.47 12 25.94 12 12 C14.475 12.99 14.475 12.99 17 14 C17 15.32 17 16.64 17 18 C17.66 18 18.32 18 19 18 C19.33 21.96 19.66 25.92 20 30 C18 28 18 28 17.8046875 26.0546875 C17.86979167 24.03645833 17.93489583 22.01822917 18 20 C17.34 20 16.68 20 16 20 C16 18.68 16 17.36 16 16 C15.34 16 14.68 16 14 16 C14 28.54 14 41.08 14 54 C9.38 54 4.76 54 0 54 C0 36.18 0 18.36 0 0 Z " fill="#616578" transform="translate(370,78)"/>
<path d="M0 0 C1.91329102 -0.00386719 1.91329102 -0.00386719 3.86523438 -0.0078125 C5.18458984 -0.00007813 6.50394531 0.00765625 7.86328125 0.015625 C9.20768609 0.00849546 10.55208751 0.0006891 11.89648438 -0.0078125 C13.80397461 -0.00394531 13.80397461 -0.00394531 15.75 0 C16.91104248 0.00225586 18.07208496 0.00451172 19.26831055 0.00683594 C22.17578125 0.265625 22.17578125 0.265625 25.17578125 2.265625 C25.5365448 4.59414673 25.5365448 4.59414673 25.51635742 7.54150391 C25.51601753 9.19298935 25.51601753 9.19298935 25.51567078 10.87783813 C25.50018692 12.07057343 25.48470306 13.26330872 25.46875 14.4921875 C25.46450516 15.71014008 25.46026031 16.92809265 25.45588684 18.18295288 C25.43904956 22.08573204 25.4013872 25.98800104 25.36328125 29.890625 C25.34824099 32.53124256 25.33455144 35.17186819 25.32226562 37.8125 C25.28912947 44.29705004 25.23887986 50.78130108 25.17578125 57.265625 C24.84578125 57.265625 24.51578125 57.265625 24.17578125 57.265625 C24.17578125 39.445625 24.17578125 21.625625 24.17578125 3.265625 C6.85078125 3.760625 6.85078125 3.760625 -10.82421875 4.265625 C-11.15421875 5.255625 -11.48421875 6.245625 -11.82421875 7.265625 C-13.70039573 9.11061898 -15.75159484 10.6339849 -17.82421875 12.265625 C-17.01171875 8.828125 -17.01171875 8.828125 -15.82421875 5.265625 C-14.83421875 4.935625 -13.84421875 4.605625 -12.82421875 4.265625 C-12.82421875 3.605625 -12.82421875 2.945625 -12.82421875 2.265625 C-8.40148123 0.57557788 -4.72535499 0.0091545 0 0 Z " fill="#DDE6EE" transform="translate(661.82421875,74.734375)"/>
<path d="M0 0 C1.9375 0.375 1.9375 0.375 4 1 C6.65289805 6.3057961 5.64727327 14.4176144 4.24609375 20.0078125 C2.55617637 24.44798757 0.82014569 27.99845696 -3 31 C0.96 30.505 0.96 30.505 5 30 C4.67 30.66 4.34 31.32 4 32 C-6.70821771 34.14911874 -18.20070795 32.69985442 -29 32 C-29.33 31.34 -29.66 30.68 -30 30 C-29.44538086 30.01571045 -28.89076172 30.0314209 -28.31933594 30.04760742 C-25.79632848 30.11012862 -23.27348424 30.14904342 -20.75 30.1875 C-19.87730469 30.21263672 -19.00460938 30.23777344 -18.10546875 30.26367188 C-13.06070387 30.39924843 -13.06070387 30.39924843 -8.515625 28.48828125 C-8.01546875 27.99714844 -7.5153125 27.50601563 -7 27 C-6.34 27 -5.68 27 -5 27 C-5 26.34 -5 25.68 -5 25 C-3.66666667 23.66666667 -2.33333333 22.33333333 -1 21 C1.3358803 17.41275525 1.39114565 13.95937823 1.625 9.75 C1.69976562 8.48671875 1.77453125 7.2234375 1.8515625 5.921875 C1.90054688 4.95765625 1.94953125 3.9934375 2 3 C1.34 3 0.68 3 0 3 C0 2.01 0 1.02 0 0 Z " fill="#DCEAF1" transform="translate(107,113)"/>
<path d="M0 0 C6.93 0 13.86 0 21 0 C21 2.97 21 5.94 21 9 C20 10 20 10 18.05053711 10.11352539 C17.2178833 10.10828857 16.38522949 10.10305176 15.52734375 10.09765625 C14.62822266 10.09443359 13.72910156 10.09121094 12.80273438 10.08789062 C11.85720703 10.07951172 10.91167969 10.07113281 9.9375 10.0625 C8.98810547 10.05798828 8.03871094 10.05347656 7.06054688 10.04882812 C4.70696935 10.0370011 2.35351523 10.02052025 0 10 C0 9.34 0 8.68 0 8 C2.26461071 6.62505778 3.45654694 5.92008043 6.125 6.3125 C8 7 8 7 10 8 C9.67 6.68 9.34 5.36 9 4 C7.35 4 5.7 4 4 4 C4 3.34 4 2.68 4 2 C2.68 1.34 1.36 0.68 0 0 Z " fill="#2B2D45" transform="translate(258,100)"/>
<path d="M0 0 C0.66 0 1.32 0 2 0 C2.0093457 1.16047852 2.01869141 2.32095703 2.02832031 3.51660156 C2.06821876 7.82574731 2.13397684 12.13417899 2.20751953 16.44287109 C2.23573006 18.30703553 2.25694421 20.1713196 2.27099609 22.03564453 C2.29242484 24.71709441 2.33907298 27.39710586 2.390625 30.078125 C2.39185364 30.91055725 2.39308228 31.7429895 2.39434814 32.60064697 C2.48713611 36.27340139 2.59275001 38.38900545 4.66308594 41.49511719 C7.39539956 43.47272367 7.39539956 43.47272367 13 44 C13 29.48 13 14.96 13 0 C17.95 0 22.9 0 28 0 C28 0.33 28 0.66 28 1 C23.38 1 18.76 1 14 1 C14 15.52 14 30.04 14 45 C5 45 5 45 2 43 C2 42.01 2 41.02 2 40 C1.34 40 0.68 40 0 40 C0 26.8 0 13.6 0 0 Z " fill="#C3C6D4" transform="translate(178,77)"/>
<path d="M0 0 C3.63 0 7.26 0 11 0 C11.33 14.19 11.66 28.38 12 43 C16.29 43.33 20.58 43.66 25 44 C25 44.33 25 44.66 25 45 C20.05 45 15.1 45 10 45 C10 30.48 10 15.96 10 1 C7.03 1 4.06 1 1 1 C0.67 2.32 0.34 3.64 0 5 C-0.66 5 -1.32 5 -2 5 C-1.97381592 5.97348389 -1.94763184 6.94696777 -1.9206543 7.94995117 C-1.82989979 11.57455302 -1.77266099 15.19905527 -1.7253418 18.82446289 C-1.70025453 20.39104114 -1.66617585 21.95750299 -1.62280273 23.52368164 C-1.56188774 25.78040309 -1.53373501 28.03557294 -1.51171875 30.29296875 C-1.48591232 30.98899704 -1.4601059 31.68502533 -1.43351746 32.40214539 C-1.43129933 36.28040026 -1.88063166 37.85331783 -4.36010742 40.90014648 C-9.98414458 45.37368238 -15.50918297 45.26735346 -22.375 45.125 C-23.20644531 45.11597656 -24.03789063 45.10695312 -24.89453125 45.09765625 C-26.92981337 45.0742622 -28.96494564 45.03839725 -31 45 C-31 44.67 -31 44.34 -31 44 C-29.84242188 43.95101562 -28.68484375 43.90203125 -27.4921875 43.8515625 C-25.9531033 43.77648522 -24.4140419 43.70093957 -22.875 43.625 C-21.73417969 43.57859375 -21.73417969 43.57859375 -20.5703125 43.53125 C-12.511412 43.12706623 -12.511412 43.12706623 -5.86303711 38.89550781 C-3.57086199 35.33303935 -3.44723925 32.49794595 -3.49609375 28.3984375 C-3.48667252 27.68015778 -3.47725128 26.96187805 -3.46754456 26.22183228 C-3.43898643 23.939261 -3.43581372 21.65773519 -3.4375 19.375 C-3.43389224 17.08527746 -3.42438724 14.79630891 -3.39674377 12.50674438 C-3.37995165 11.08559738 -3.37708326 9.66420119 -3.38975525 8.24301147 C-3.34375215 3.93689246 -3.21718041 3.21718041 0 0 Z " fill="#D3DEE7" transform="translate(661,88)"/>
<path d="M0 0 C0.99 0.66 1.98 1.32 3 2 C3 3.32 3 4.64 3 6 C3.66 6 4.32 6 5 6 C5 7.65 5 9.3 5 11 C5.66 11 6.32 11 7 11 C7 12.98 7 14.96 7 17 C7.66 17 8.32 17 9 17 C9 18.98 9 20.96 9 23 C9.66 23 10.32 23 11 23 C11 24.32 11 25.64 11 27 C11.66 27 12.32 27 13 27 C13 29.31 13 31.62 13 34 C13.66 34 14.32 34 15 34 C15 35.98 15 37.96 15 40 C15.66 40 16.32 40 17 40 C17 41.65 17 43.3 17 45 C17.66 45 18.32 45 19 45 C18.67 46.65 18.34 48.3 18 50 C12.06 50 6.12 50 0 50 C-0.495 47.525 -0.495 47.525 -1 45 C-1.66 45 -2.32 45 -3 45 C-3 43.35 -3 41.7 -3 40 C-8.28 40 -13.56 40 -19 40 C-19 39.67 -19 39.34 -19 39 C-16.02077407 38.97316013 -13.04178705 38.95323963 -10.0625 38.9375 C-9.21236328 38.92912109 -8.36222656 38.92074219 -7.48632812 38.91210938 C-6.67744141 38.90888672 -5.86855469 38.90566406 -5.03515625 38.90234375 C-4.2862915 38.89710693 -3.53742676 38.89187012 -2.76586914 38.88647461 C-1 39 -1 39 0 40 C0.45459858 42.65463121 0.70243238 45.32189138 1 48 C5.95 48.33 10.9 48.66 16 49 C13.8258158 39.75971714 11.2084842 30.94310305 7.375 22.25 C6 19 6 19 4.9375 15.25 C4.14616078 11.89168728 4.14616078 11.89168728 2 9 C1.3671875 6.73828125 1.3671875 6.73828125 0.875 4.3125 C0.70742188 3.50425781 0.53984375 2.69601563 0.3671875 1.86328125 C0.24601562 1.24839844 0.12484375 0.63351563 0 0 Z " fill="#BABDC8" transform="translate(484,83)"/>
<path d="M0 0 C11.55 0 23.1 0 35 0 C35 2.97 35 5.94 35 9 C34 10 34 10 32.05053711 10.11352539 C31.2178833 10.10828857 30.38522949 10.10305176 29.52734375 10.09765625 C28.62822266 10.09443359 27.72910156 10.09121094 26.80273438 10.08789062 C25.85720703 10.07951172 24.91167969 10.07113281 23.9375 10.0625 C22.98810547 10.05798828 22.03871094 10.05347656 21.06054688 10.04882812 C18.70696935 10.0370011 16.35351523 10.02052025 14 10 C14 9.34 14 8.68 14 8 C16.22843488 7.80399423 18.45779893 7.61853431 20.6875 7.4375 C22.54955078 7.28087891 22.54955078 7.28087891 24.44921875 7.12109375 C27.55835533 7.01506159 30.00810972 7.22771475 33 8 C33 5.69 33 3.38 33 1 C22.44 1 11.88 1 1 1 C1.33 15.85 1.66 30.7 2 46 C0 44 0 44 -0.24050903 42.08908081 C-0.23606781 41.31186676 -0.23162659 40.53465271 -0.22705078 39.73388672 C-0.22689972 38.85312469 -0.22674866 37.97236267 -0.22659302 37.06491089 C-0.21627045 36.11278717 -0.20594788 35.16066345 -0.1953125 34.1796875 C-0.1924826 33.20589142 -0.18965271 32.23209534 -0.18673706 31.22879028 C-0.17551913 28.11073651 -0.1504117 24.99296732 -0.125 21.875 C-0.11497228 19.76432706 -0.10584607 17.65364962 -0.09765625 15.54296875 C-0.07727392 10.36178064 -0.03812828 5.18120982 0 0 Z " fill="#606274" transform="translate(244,78)"/>
<path d="M0 0 C3.4375 0.75 3.4375 0.75 5.4375 2.75 C5.90629799 6.34411792 5.88111448 8.10164037 3.8125 11.125 C0.80031721 13.18596718 -0.9807378 13.13932198 -4.5625 12.75 C-5.2225 12.42 -5.8825 12.09 -6.5625 11.75 C-7.34061718 7.93015204 -7.80636556 5.48159669 -6.5625 1.75 C-3.5625 -0.25 -3.5625 -0.25 0 0 Z " fill="#939DB0" transform="translate(596.5625,64.25)"/>
<path d="M0 0 C0.33 0 0.66 0 1 0 C1 17.49 1 34.98 1 53 C-6.59964681 53.06296117 -14.19834571 53.12305931 -21.79802704 53.15525055 C-25.33722627 53.17107353 -28.87620896 53.19220803 -32.4152832 53.22631836 C-36.47869937 53.26523603 -40.54188721 53.27972547 -44.60546875 53.29296875 C-46.50258858 53.31619453 -46.50258858 53.31619453 -48.43803406 53.33988953 C-49.61888077 53.34011612 -50.79972748 53.34034271 -52.01635742 53.34057617 C-53.05338303 53.34723801 -54.09040863 53.35389984 -55.15885925 53.36076355 C-58.41903623 52.94679144 -60.32419039 51.86110796 -63 50 C-62.01 49.505 -62.01 49.505 -61 49 C-59.84346924 49.45125244 -59.84346924 49.45125244 -58.66357422 49.91162109 C-53.26535508 51.51533034 -47.98707674 51.35883123 -42.3828125 51.4140625 C-41.17051971 51.43342865 -39.95822693 51.4527948 -38.709198 51.4727478 C-34.84786961 51.53239315 -30.98651117 51.57886945 -27.125 51.625 C-24.50259137 51.66319356 -21.88019509 51.70224609 -19.2578125 51.7421875 C-12.83860699 51.83969442 -6.41952871 51.91938464 0 52 C0 34.84 0 17.68 0 0 Z " fill="#4F5268" transform="translate(357,79)"/>
<path d="M0 0 C0.99 0 1.98 0 3 0 C6.23325003 5.34189136 6.58706708 9.88859272 7 16 C3.37 16 -0.26 16 -4 16 C-4 10.88511574 -3.06917275 8.55218005 -1 4 C-0.62691369 2.67723944 -0.26953585 1.34767923 0 0 Z " fill="#9DA2B4" transform="translate(472,96)"/>
<path d="M0 0 C7.26 0 14.52 0 22 0 C22 0.33 22 0.66 22 1 C15.07 1 8.14 1 1 1 C0.67 2.65 0.34 4.3 0 6 C-0.66 6 -1.32 6 -2 6 C-2 7.98 -2 9.96 -2 12 C-2.66 12 -3.32 12 -4 12 C-3.938125 12.845625 -3.87625 13.69125 -3.8125 14.5625 C-3.99329125 17.87700619 -4.73015415 19.89652755 -6.1328125 22.85546875 C-7.96638319 27.3898395 -8.89900046 32.24461901 -10 37 C-11.32 36.67 -12.64 36.34 -14 36 C-15.29243536 31.8803623 -16.26252625 28.33168317 -16 24 C-14.5 25.125 -14.5 25.125 -13 27 C-12.8125 30.1875 -12.8125 30.1875 -13 33 C-12.34 33 -11.68 33 -11 33 C-10.24758891 29.34543185 -9.59950296 25.68266103 -9 22 C-8.34 22 -7.68 22 -7 22 C-7.061875 21.13375 -7.12375 20.2675 -7.1875 19.375 C-6.97193666 15.49485981 -5.83726955 13.39188224 -4 10 C-3.32136945 8.0040278 -2.65358081 6.00431449 -2 4 C-1.34 2.68 -0.68 1.36 0 0 Z " fill="#B2B3C3" transform="translate(416,77)"/>
<path d="M0 0 C4.29 0 8.58 0 13 0 C13 12.54 13 25.08 13 38 C12.67 38 12.34 38 12 38 C12 25.79 12 13.58 12 1 C8.37 1 4.74 1 1 1 C1 15.52 1 30.04 1 45 C1.66 45 2.32 45 3 45 C3.33 46.65 3.66 48.3 4 50 C2.02838135 48.79093933 2.02838135 48.79093933 0 47 C-0.48101807 44.85493469 -0.48101807 44.85493469 -0.45410156 42.3449707 C-0.45379944 41.40422195 -0.45349731 40.46347321 -0.45318604 39.49421692 C-0.43254089 38.48163315 -0.41189575 37.46904938 -0.390625 36.42578125 C-0.38496521 35.38681198 -0.37930542 34.34784271 -0.37347412 33.27738953 C-0.35106327 29.95529319 -0.3008569 26.63427096 -0.25 23.3125 C-0.22994115 21.06186452 -0.21168931 18.81121216 -0.1953125 16.56054688 C-0.15118282 11.03995001 -0.0821217 5.52015718 0 0 Z " fill="#56586C" transform="translate(290,78)"/>
<path d="M0 0 C0.66 0 1.32 0 2 0 C1.67 5.94 1.34 11.88 1 18 C1.66 18 2.32 18 3 18 C3.50403768 19.29009643 4.00309926 20.58213789 4.5 21.875 C4.7784375 22.59429687 5.056875 23.31359375 5.34375 24.0546875 C6 26 6 26 6 28 C4.68 28.33 3.36 28.66 2 29 C-1.85107488 24.1861564 -2.38607728 20.0078473 -2.375 13.9375 C-2.37628906 13.25300781 -2.37757812 12.56851563 -2.37890625 11.86328125 C-2.28766171 7.56649285 -1.55868185 3.99646027 0 0 Z " fill="#D6DFE7" transform="translate(81,60)"/>
<path d="M0 0 C0.33 0 0.66 0 1 0 C1 12.54 1 25.08 1 38 C0.34 38 -0.32 38 -1 38 C-1.33 28.43 -1.66 18.86 -2 9 C-2.66 9.66 -3.32 10.32 -4 11 C-3.49172849 6.62886504 -2.54826592 3.61004338 0 0 Z " fill="#C4C8D4" transform="translate(424,94)"/>
<path d="M0 0 C0.66 0.33 1.32 0.66 2 1 C0.58191918 4.84907651 -0.80298308 8.59140827 -2.5859375 12.2890625 C-5.82088245 20.77855891 -5.11111659 33.41531466 -2 42 C-1.505 42.66 -1.01 43.32 -0.5 44 C1.82683524 47.10244699 2.18488314 50.2379222 3 54 C2.01 53.34 1.02 52.68 0 52 C0 51.01 0 50.02 0 49 C-0.66 49 -1.32 49 -2 49 C-2 47.35 -2 45.7 -2 44 C-2.66 44 -3.32 44 -4 44 C-6.36096509 37.52128871 -6.23053565 31.40202165 -6.125 24.5625 C-6.11597656 23.44939453 -6.10695312 22.33628906 -6.09765625 21.18945312 C-6.0742224 18.45940977 -6.041414 15.7298199 -6 13 C-5.34 13 -4.68 13 -4 13 C-4.04125 12.278125 -4.0825 11.55625 -4.125 10.8125 C-3.99078695 7.79270631 -3.24829381 5.73064271 -2 3 C-1.34 3 -0.68 3 0 3 C0 2.01 0 1.02 0 0 Z " fill="#C5C9D3" transform="translate(51,72)"/>
<path d="M0 0 C0.85464844 -0.01417969 1.70929687 -0.02835937 2.58984375 -0.04296875 C5.20159303 0.20046444 6.81750652 0.8696732 9.0625 2.1875 C8.7325 2.8475 8.4025 3.5075 8.0625 4.1875 C7.0725 3.8575 6.0825 3.5275 5.0625 3.1875 C3.06429272 3.09314021 1.06292797 3.05759699 -0.9375 3.0625 C-1.989375 3.05992188 -3.04125 3.05734375 -4.125 3.0546875 C-7.01876878 3.06396365 -7.01876878 3.06396365 -9.9375 4.1875 C-10.9916518 7.34995541 -11.25025672 10.05698218 -11.5 13.375 C-11.58378906 14.46167969 -11.66757812 15.54835938 -11.75390625 16.66796875 C-11.81449219 17.49941406 -11.87507812 18.33085938 -11.9375 19.1875 C-11.2775 19.1875 -10.6175 19.1875 -9.9375 19.1875 C-9.6075 20.1775 -9.2775 21.1675 -8.9375 22.1875 C-7.9475 22.5175 -6.9575 22.8475 -5.9375 23.1875 C-5.9375 23.8475 -5.9375 24.5075 -5.9375 25.1875 C-2.6375 25.5175 0.6625 25.8475 4.0625 26.1875 C4.0625 26.5175 4.0625 26.8475 4.0625 27.1875 C-1.01664225 27.73935851 -5.65918603 28.0273897 -10.0625 25.125 C-13.41276656 21.82236756 -13.60808174 18.12518671 -13.6875 13.625 C-13.66873528 8.96665742 -13.54384149 6.93338035 -10.578125 3.28515625 C-7.01104766 0.451546 -4.42852672 0.03329719 0 0 Z " fill="#CCD8E1" transform="translate(532.9375,90.8125)"/>
<path d="M0 0 C0.66 0 1.32 0 2 0 C2 1.32 2 2.64 2 4 C2.66 4 3.32 4 4 4 C6.76234935 15.37002723 7.85804265 28.43230096 2.375 39.1875 C1.92125 39.785625 1.4675 40.38375 1 41 C0.67 40.34 0.34 39.68 0 39 C0.30083496 38.10265137 0.60166992 37.20530273 0.91162109 36.28076172 C2.04740817 32.85709489 2.3113673 30.1021445 2.4140625 26.5078125 C2.45273438 25.30898437 2.49140625 24.11015625 2.53125 22.875 C2.5621875 21.6375 2.593125 20.4 2.625 19.125 C2.66367188 17.86429688 2.70234375 16.60359375 2.7421875 15.3046875 C2.83616989 12.20326863 2.92183411 9.10185114 3 6 C2.34 6 1.68 6 1 6 C0.67 4.02 0.34 2.04 0 0 Z " fill="#9DA9BD" transform="translate(138,78)"/>
<path d="M0 0 C2.475 0.495 2.475 0.495 5 1 C5.33 1.99 5.66 2.98 6 4 C7.65 3.67 9.3 3.34 11 3 C11 4.65 11 6.3 11 8 C12.65 8 14.3 8 16 8 C16 8.66 16 9.32 16 10 C20.06923552 10.9729102 23.88418522 11.13393757 28.0625 11.125 C29.87427734 11.12886719 29.87427734 11.12886719 31.72265625 11.1328125 C34.36737407 11.02563681 36.49533692 10.78700137 39 10 C38.0078125 11.47265625 38.0078125 11.47265625 36 13 C33.19341592 13.32931378 30.67865846 13.47573718 27.875 13.4375 C26.72257812 13.42505249 26.72257812 13.42505249 25.546875 13.41235352 C15.34797555 13.10876339 8.49198427 8.78961074 1 2 C0.67 1.34 0.34 0.68 0 0 Z " fill="#525468" transform="translate(60,131)"/>
<path d="M0 0 C0.8623526 0.48608231 1.7247052 0.97216461 2.6131897 1.47297668 C6.14239805 3.06420352 8.35406804 3.39192055 12.18896484 3.43237305 C13.99015274 3.46206429 13.99015274 3.46206429 15.82772827 3.49235535 C17.74991684 3.50194023 17.74991684 3.50194023 19.7109375 3.51171875 C21.04759353 3.5285811 22.38423386 3.54673343 23.72085571 3.56611633 C27.2224232 3.61345433 30.72392699 3.64336777 34.22570801 3.66955566 C37.80554785 3.69944358 41.38516856 3.74594539 44.96484375 3.79101562 C51.9764373 3.87686384 58.98810395 3.94429083 66 4 C66 4.33 66 4.66 66 5 C57.83766524 5.06948076 49.67545383 5.12280118 41.51289654 5.15543652 C37.7227656 5.1710991 33.93283684 5.19234778 30.14282227 5.22631836 C26.48589399 5.2588913 22.8291603 5.27684855 19.17209816 5.28463173 C17.77621204 5.29017901 16.38033669 5.3010115 14.98453331 5.31719017 C13.0310541 5.33893429 11.07737949 5.34022515 9.1237793 5.34057617 C8.0112529 5.34723801 6.8987265 5.35389984 5.75248718 5.36076355 C3 5 3 5 1.11726379 3.60371399 C0 2 0 2 0 0 Z " fill="#BDC1CC" transform="translate(168,128)"/>
<path d="M0 0 C5.62154698 0.14053867 8.4298108 2.66294209 12.4609375 6.2109375 C14 8 14 8 14 11 C14.61359375 11.25136719 15.2271875 11.50273438 15.859375 11.76171875 C19.42784288 13.82596021 20.61687732 17.23243144 22 21 C22.25 24 22.25 24 22 26 C21.67 24.68 21.34 23.36 21 22 C20.34 22 19.68 22 19 22 C15.17977528 15.50561798 15.17977528 15.50561798 14 12.1875 C12.75896818 9.47274289 11.66676821 9.16671109 9 8 C8.34 7.01 7.68 6.02 7 5 C5.2820354 3.79517061 5.2820354 3.79517061 3.375 2.8125 C2.26125 2.214375 1.1475 1.61625 0 1 C0 0.67 0 0.34 0 0 Z " fill="#D6E0E9" transform="translate(119,56)"/>
<path d="M0 0 C0 1.32 0 2.64 0 4 C2.64 3.67 5.28 3.34 8 3 C7.67 3.66 7.34 4.32 7 5 C-3.70821771 7.14911874 -15.20070795 5.69985442 -26 5 C-26.33 4.34 -26.66 3.68 -27 3 C-26.44538086 3.01571045 -25.89076172 3.0314209 -25.31933594 3.04760742 C-22.79632848 3.11012862 -20.27348424 3.14904342 -17.75 3.1875 C-16.44095703 3.22520508 -16.44095703 3.22520508 -15.10546875 3.26367188 C-8.9895805 3.33370113 -5.5543504 0 0 0 Z " fill="#C5CAD5" transform="translate(104,140)"/>
<path d="M0 0 C0.99 0.33 1.98 0.66 3 1 C3 1.66 3 2.32 3 3 C3.66 3 4.32 3 5 3 C5.33 4.65 5.66 6.3 6 8 C5.01 8 4.02 8 3 8 C4.10152406 9.43952597 5.2063304 10.87654071 6.3125 12.3125 C7.23482422 13.51326172 7.23482422 13.51326172 8.17578125 14.73828125 C9.69916307 16.62701374 11.24434407 18.33077636 13 20 C12.67 20.66 12.34 21.32 12 22 C8.05825487 18.14829474 4.14335486 14.26830017 0.4375 10.1875 C-0.05878906 9.64480469 -0.55507812 9.10210937 -1.06640625 8.54296875 C-1.37449219 8.03378906 -1.68257813 7.52460937 -2 7 C-1.67 6.01 -1.34 5.02 -1 4 C-0.34 4 0.32 4 1 4 C0.67 2.68 0.34 1.36 0 0 Z " fill="#B1BAC9" transform="translate(86,84)"/>
<path d="M0 0 C0.33 0 0.66 0 1 0 C1.22224251 2.58281836 1.42823488 5.16522187 1.625 7.75 C1.68945312 8.47960937 1.75390625 9.20921875 1.8203125 9.9609375 C2.10381649 13.85911736 2.27081383 16.70645322 0 20 C-0.99 20 -1.98 20 -3 20 C-3 20.99 -3 21.98 -3 23 C0.96 22.505 0.96 22.505 5 22 C4 24 4 24 1.3125 25.125 C-1.9579435 25.98889074 -4.63706182 26.16013991 -8 26 C-7.34 24.68 -6.68 23.36 -6 22 C-5.34 22 -4.68 22 -4 22 C-3.87625 21.46375 -3.7525 20.9275 -3.625 20.375 C-3 18 -3 18 -2 15.5 C-0.54417072 10.4045975 -0.3242465 5.27327202 0 0 Z " fill="#9FAAB9" transform="translate(112,118)"/>
<path d="M0 0 C0.66 0 1.32 0 2 0 C2 9.9 2 19.8 2 30 C1.34 30 0.68 30 0 30 C0 21.09 0 12.18 0 3 C-0.66 2.67 -1.32 2.34 -2 2 C-1.34 1.34 -0.68 0.68 0 0 Z " fill="#E2EBF3" transform="translate(607,102)"/>
<path d="M0 0 C0.33 0 0.66 0 1 0 C1.33 13.53 1.66 27.06 2 41 C5.3 41 8.6 41 12 41 C12 41.66 12 42.32 12 43 C8.04 43 4.08 43 0 43 C0 28.81 0 14.62 0 0 Z " fill="#F0F1FC" transform="translate(207,78)"/>
<path d="M0 0 C0.33 0.99 0.66 1.98 1 3 C0.34 3 -0.32 3 -1 3 C-1.103125 3.639375 -1.20625 4.27875 -1.3125 4.9375 C-1.539375 5.618125 -1.76625 6.29875 -2 7 C-2.99 7.33 -3.98 7.66 -5 8 C-5.45375 8.99 -5.9075 9.98 -6.375 11 C-8 14 -8 14 -10.5 14.8125 C-11.7375 14.9053125 -11.7375 14.9053125 -13 15 C-13.99 15.33 -14.98 15.66 -16 16 C-18.1875 15.0625 -18.1875 15.0625 -20 14 C-17.69 13.34 -15.38 12.68 -13 12 C-13 11.34 -13 10.68 -13 10 C-12.0925 9.608125 -11.185 9.21625 -10.25 8.8125 C-6.84023835 6.91090216 -5.37026716 5.02413396 -3 2 C-2.01 2 -1.02 2 0 2 C0 1.34 0 0.68 0 0 Z " fill="#E0E8EE" transform="translate(132,128)"/>
<path d="M0 0 C0.66 0 1.32 0 2 0 C2 2.31 2 4.62 2 7 C2.99 7 3.98 7 5 7 C5 8.65 5 10.3 5 12 C2.36 12 -0.28 12 -3 12 C-2.67 9.03 -2.34 6.06 -2 3 C-1.34 3 -0.68 3 0 3 C0 2.01 0 1.02 0 0 Z " fill="#EAEFF7" transform="translate(473,99)"/>
<path d="M0 0 C1.134375 0.020625 2.26875 0.04125 3.4375 0.0625 C3.4375 0.7225 3.4375 1.3825 3.4375 2.0625 C0.9375 3.6875 0.9375 3.6875 -1.5625 5.0625 C-1.5625 4.4025 -1.5625 3.7425 -1.5625 3.0625 C-3.2125 3.0625 -4.8625 3.0625 -6.5625 3.0625 C-6.5625 3.7225 -6.5625 4.3825 -6.5625 5.0625 C-7.5525 5.5575 -7.5525 5.5575 -8.5625 6.0625 C-8.5625 6.7225 -8.5625 7.3825 -8.5625 8.0625 C-12.2066774 10.4919516 -14.27491272 10.22429575 -18.5625 10.0625 C-18.5625 9.4025 -18.5625 8.7425 -18.5625 8.0625 C-17.56347656 7.56878906 -16.56445312 7.07507812 -15.53515625 6.56640625 C-14.2317186 5.91937605 -12.92833602 5.27223489 -11.625 4.625 C-10.96564453 4.29951172 -10.30628906 3.97402344 -9.62695312 3.63867188 C-2.39662279 0.04204601 -2.39662279 0.04204601 0 0 Z " fill="#3D3E56" transform="translate(82.5625,51.9375)"/>
<path d="M0 0 C6.93 0 13.86 0 21 0 C21 2.97 21 5.94 21 9 C20.67 9 20.34 9 20 9 C20 6.36 20 3.72 20 1 C17.05908413 1.18415432 17.05908413 1.18415432 14 2 C12.56362302 3.95163118 12.56362302 3.95163118 12 6 C11.01 6 10.02 6 9 6 C9 5.34 9 4.68 9 4 C7.35 4 5.7 4 4 4 C4 3.34 4 2.68 4 2 C2.68 1.34 1.36 0.68 0 0 Z " fill="#444560" transform="translate(258,100)"/>
<path d="M0 0 C0.33 0 0.66 0 1 0 C1.00586624 0.55043976 1.01173248 1.10087952 1.01777649 1.66799927 C1.08184603 7.41116189 1.16630024 13.15377116 1.26245117 18.89648438 C1.29564938 21.0380116 1.32369714 23.17962524 1.34643555 25.32128906 C1.38007504 28.40467054 1.43239654 31.48726369 1.48828125 34.5703125 C1.49467117 35.52366486 1.5010611 36.47701721 1.50764465 37.45925903 C1.62344882 42.72745031 2.12691467 46.40440135 5 51 C4.01 51 3.02 51 2 51 C-0.14782833 47.77825751 -0.24649148 46.9566269 -0.22705078 43.25317383 C-0.22689972 42.29240433 -0.22674866 41.33163483 -0.22659302 40.3417511 C-0.21627045 39.30729355 -0.20594788 38.272836 -0.1953125 37.20703125 C-0.1924826 36.14586594 -0.18965271 35.08470062 -0.18673706 33.99137878 C-0.17553184 30.59830503 -0.15042647 27.20549413 -0.125 23.8125 C-0.11497065 21.51367568 -0.10584472 19.21484724 -0.09765625 16.91601562 C-0.07559141 11.27725389 -0.04211044 5.63864572 0 0 Z " fill="#CFD1D8" transform="translate(243,77)"/>
<path d="M0 0 C0 0.66 0 1.32 0 2 C-1.093125 1.979375 -2.18625 1.95875 -3.3125 1.9375 C-6.94384191 1.81455548 -6.94384191 1.81455548 -10 3 C-10 6.3 -10 9.6 -10 13 C-6.7 13 -3.4 13 0 13 C-0.33 13.99 -0.66 14.98 -1 16 C-3.64 16 -6.28 16 -9 16 C-9 15.34 -9 14.68 -9 14 C-9.66 14 -10.32 14 -11 14 C-13.48836965 10.26744552 -13.54226552 8.41559065 -13 4 C-9.16234369 -0.67714363 -5.62498439 -0.38135487 0 0 Z " fill="#D8DCE6" transform="translate(600,63)"/>
<path d="M0 0 C1.32 1.32 2.64 2.64 4 4 C3.67 4.66 3.34 5.32 3 6 C2.01 5.34 1.02 4.68 0 4 C0 17.53 0 31.06 0 45 C-0.33 45 -0.66 45 -1 45 C-1.02527124 38.75204325 -1.04283344 32.50409959 -1.05493164 26.25610352 C-1.05997298 24.12881986 -1.06680591 22.00153969 -1.07543945 19.87426758 C-1.08751379 16.82372174 -1.09323014 13.77322155 -1.09765625 10.72265625 C-1.10281754 9.76537125 -1.10797882 8.80808624 -1.11329651 7.8217926 C-1.11337204 6.94095505 -1.11344757 6.06011749 -1.11352539 5.15258789 C-1.115746 4.37315323 -1.11796661 3.59371857 -1.12025452 2.79066467 C-1 1 -1 1 0 0 Z " fill="#373B53" transform="translate(382,86)"/>
<path d="M0 0 C2 1.3125 2 1.3125 4 3 C4 3.99 4 4.98 4 6 C4.66 6 5.32 6 6 6 C6.0543965 8.37531394 6.09385864 10.74935883 6.125 13.125 C6.14175781 13.79015625 6.15851562 14.4553125 6.17578125 15.140625 C6.21836822 19.48449575 5.73556672 23.00698285 4 27 C3.34 27.33 2.68 27.66 2 28 C2.15984375 27.34 2.3196875 26.68 2.484375 26 C3.11595912 22.32532875 3.22256797 18.71704002 3.25 15 C3.270625 14.30132812 3.29125 13.60265625 3.3125 12.8828125 C3.34685606 8.33063431 2.59117519 5.70947186 0 2 C0 1.34 0 0.68 0 0 Z " fill="#D6DEE9" transform="translate(556,90)"/>
<path d="M0 0 C0.99 0 1.98 0 3 0 C3 13.86 3 27.72 3 42 C2.67 42 2.34 42 2 42 C1.67 29.79 1.34 17.58 1 5 C0.01 5.495 0.01 5.495 -1 6 C-0.67 4.02 -0.34 2.04 0 0 Z " fill="#808297" transform="translate(423,90)"/>
<path d="M0 0 C2.3125 0.1875 2.3125 0.1875 5 1 C6.4375 3.1875 6.4375 3.1875 8 6 C9.54575907 7.58958213 11.14531287 9.08702132 12.79296875 10.5703125 C14 12 14 12 14 15 C13.34 15 12.68 15 12 15 C12 14.34 12 13.68 12 13 C11.42765625 12.7628125 10.8553125 12.525625 10.265625 12.28125 C7.5120708 10.72406762 5.83204366 8.87507203 3.75 6.5 C3.04359375 5.7059375 2.3371875 4.911875 1.609375 4.09375 C0 2 0 2 0 0 Z " fill="#DBE7EF" transform="translate(89,92)"/>
<path d="M0 0 C0.99 0.33 1.98 0.66 3 1 C2.01 1.495 2.01 1.495 1 2 C1.99 2.33 2.98 2.66 4 3 C4.33 3.99 4.66 4.98 5 6 C3.875 8.1875 3.875 8.1875 2 10 C-0.6875 10.25 -0.6875 10.25 -3 10 C-3.29296875 3.9453125 -3.29296875 3.9453125 -3 2 C-2.01 1.34 -1.02 0.68 0 0 Z " fill="#818EA6" transform="translate(594,65)"/>
<path d="M0 0 C0.33 0 0.66 0 1 0 C1.09889302 4.50229474 1.17147709 9.00395727 1.21972656 13.50708008 C1.2398398 15.03876762 1.2671345 16.57037839 1.30175781 18.10180664 C1.35029315 20.30374073 1.37296996 22.50465982 1.390625 24.70703125 C1.41127014 25.39150833 1.43191528 26.07598541 1.45318604 26.78120422 C1.45469919 29.98876893 1.40678994 31.57700669 -0.86328125 33.9375 C-3.49929567 35.24827865 -5.32074227 35.30312859 -8.25 35.1875 C-9.58804688 35.14689453 -9.58804688 35.14689453 -10.953125 35.10546875 C-11.62859375 35.07066406 -12.3040625 35.03585938 -13 35 C-13 34.67 -13 34.34 -13 34 C-10.03 34 -7.06 34 -4 34 C-4 33.34 -4 32.68 -4 32 C-3.34 32 -2.68 32 -2 32 C-2 31.34 -2 30.68 -2 30 C-1.34 30 -0.68 30 0 30 C0 20.1 0 10.2 0 0 Z " fill="#DAE2E9" transform="translate(643,87)"/>
<path d="M0 0 C0.66 0.33 1.32 0.66 2 1 C1.01 2.485 1.01 2.485 0 4 C-0.66 4 -1.32 4 -2 4 C-2.12375 4.639375 -2.2475 5.27875 -2.375 5.9375 C-2.58125 6.618125 -2.7875 7.29875 -3 8 C-3.99 8.495 -3.99 8.495 -5 9 C-8.12051155 13.94658869 -8.51928106 18.20361871 -8.6875 23.875 C-8.72166016 24.65875 -8.75582031 25.4425 -8.79101562 26.25 C-8.87280412 28.16618748 -8.9380946 30.08306715 -9 32 C-9.33 32 -9.66 32 -10 32 C-10.59580345 21.97064193 -11.0625831 13.76292196 -5.703125 4.87109375 C-3.8129213 2.79447088 -2.7473256 2.34042948 0 2 C0 1.34 0 0.68 0 0 Z " fill="#9DAABC" transform="translate(516,82)"/>
<path d="M0 0 C1 2 1 2 0.375 4.3125 C-2.12608824 9.20099065 -5.22756737 11.8955254 -10.3125 13.8125 C-11.529375 14.204375 -12.74625 14.59625 -14 15 C-14 14.34 -14 13.68 -14 13 C-13.01 13 -12.02 13 -11 13 C-10.7525 12.4225 -10.505 11.845 -10.25 11.25 C-8.81700012 8.67060021 -7.21575324 6.93878408 -5 5 C-4.34 5 -3.68 5 -3 5 C-2.87625 4.360625 -2.7525 3.72125 -2.625 3.0625 C-2.41875 2.381875 -2.2125 1.70125 -2 1 C-1.34 0.67 -0.68 0.34 0 0 Z " fill="#C5CEDC" transform="translate(595,115)"/>
<path d="M0 0 C0.82564453 -0.03287109 1.65128906 -0.06574219 2.50195312 -0.09960938 C8.88343666 -0.15492562 12.7762587 1.57215199 17.8125 5.4375 C15.98828125 6.0546875 15.98828125 6.0546875 13.8125 6.4375 C12.884375 5.81875 11.95625 5.2 11 4.5625 C5.44342191 1.01314395 -1.78682004 1.60225367 -8.1875 1.4375 C-8.1875 2.0975 -8.1875 2.7575 -8.1875 3.4375 C-9.5075 3.1075 -10.8275 2.7775 -12.1875 2.4375 C-8.08469512 -0.29770325 -4.82281749 0.03310859 0 0 Z M10.8125 6.4375 C13.8125 7.4375 13.8125 7.4375 13.8125 7.4375 Z " fill="#A6AFC0" transform="translate(102.1875,51.5625)"/>
<path d="M0 0 C7.59 0 15.18 0 23 0 C23.33 0.99 23.66 1.98 24 3 C16.08 2.67 8.16 2.34 0 2 C0 1.34 0 0.68 0 0 Z " fill="#E2E1E9" transform="translate(416,75)"/>
<path d="M0 0 C0.33 0.99 0.66 1.98 1 3 C5.16834896 4.38944965 9.36857844 4.35152111 13.7265625 4.51757812 C15.48935555 4.60881644 17.24655504 4.79703561 19 5 C19.33 5.66 19.66 6.32 20 7 C17.06195004 7.08086376 14.12611925 7.1404283 11.1875 7.1875 C9.93743164 7.22520508 9.93743164 7.22520508 8.66210938 7.26367188 C7.45844727 7.27817383 7.45844727 7.27817383 6.23046875 7.29296875 C5.12288208 7.31653442 5.12288208 7.31653442 3.99291992 7.34057617 C1.43954405 6.90422197 0.53928041 6.0485625 -1 4 C-0.6875 1.8125 -0.6875 1.8125 0 0 Z " fill="#D0D1DF" transform="translate(260,115)"/>
<path d="M0 0 C0.66 0.33 1.32 0.66 2 1 C2 2.32 2 3.64 2 5 C0.68 5.33 -0.64 5.66 -2 6 C-2.144375 6.61875 -2.28875 7.2375 -2.4375 7.875 C-3 10 -3 10 -4 12 C-4.22622081 13.70363822 -4.40888473 15.41328701 -4.5625 17.125 C-4.68818359 18.49011719 -4.68818359 18.49011719 -4.81640625 19.8828125 C-4.87699219 20.58148438 -4.93757813 21.28015625 -5 22 C-5.33 22 -5.66 22 -6 22 C-6.57042254 7.76056338 -6.57042254 7.76056338 -3 3 C-2.01 2.67 -1.02 2.34 0 2 C0 1.34 0 0.68 0 0 Z " fill="#97A3B4" transform="translate(88,56)"/>
<path d="M0 0 C2.65938688 1.32969344 2.97167112 2.20689711 4 5 C4.21843936 7.67233608 4.32474486 10.20562107 4.3125 12.875 C4.32861328 13.56980469 4.34472656 14.26460937 4.36132812 14.98046875 C4.36580538 19.73530892 3.55441025 22.99190897 1 27 C0.01 27.66 -0.98 28.32 -2 29 C-2 27.35 -2 25.7 -2 24 C-1.01 24 -0.02 24 1 24 C1 22.35 1 20.7 1 19 C1.66 19 2.32 19 3 19 C3 14.71 3 10.42 3 6 C2.34 6 1.68 6 1 6 C0.67 4.02 0.34 2.04 0 0 Z " fill="#99A3B7" transform="translate(556,92)"/>
<path d="M0 0 C0.98872583 2.60444852 1.10326229 3.7246339 0.109375 6.375 C-0.33921875 7.24125 -0.7878125 8.1075 -1.25 9 C-4.07885811 14.83895226 -5.64239338 20.67553987 -7 27 C-7.66 27 -8.32 27 -9 27 C-9.33 27.66 -9.66 28.32 -10 29 C-8.71472864 18.9748834 -4.60655884 8.94696095 0 0 Z " fill="#5C5E71" transform="translate(464,82)"/>
<path d="M0 0 C1 2 1 2 0.546875 3.8828125 C0.28390625 4.62273437 0.0209375 5.36265625 -0.25 6.125 C-0.53359375 6.93195313 -0.8171875 7.73890625 -1.109375 8.5703125 C-2.13431821 11.36642949 -3.17788154 14.15465208 -4.23828125 16.9375 C-5.58807912 20.59233731 -6.79124104 24.29656829 -8 28 C-8.33 28 -8.66 28 -9 28 C-9 26.02 -9 24.04 -9 22 C-8.34 22 -7.68 22 -7 22 C-7 20.02 -7 18.04 -7 16 C-6.34 16 -5.68 16 -5 16 C-5 14.02 -5 12.04 -5 10 C-4.34 10 -3.68 10 -3 10 C-3 8.35 -3 6.7 -3 5 C-2.34 5 -1.68 5 -1 5 C-0.67 3.35 -0.34 1.7 0 0 Z " fill="#C9CCD6" transform="translate(460,88)"/>
<path d="M0 0 C1.485 0.99 1.485 0.99 3 2 C3 3.32 3 4.64 3 6 C3.66 6 4.32 6 5 6 C5 7.65 5 9.3 5 11 C5.66 11 6.32 11 7 11 C7 12.98 7 14.96 7 17 C7.66 17 8.32 17 9 17 C9.33 19.97 9.66 22.94 10 26 C8 25 8 25 7 22.1640625 C6.67 20.99617188 6.34 19.82828125 6 18.625 C4.94609402 14.91162815 4.14882938 12.22324407 2 9 C1.3671875 6.73828125 1.3671875 6.73828125 0.875 4.3125 C0.70742188 3.50425781 0.53984375 2.69601563 0.3671875 1.86328125 C0.24601562 1.24839844 0.12484375 0.63351563 0 0 Z " fill="#B8BBC6" transform="translate(484,83)"/>
<path d="M0 0 C0 0.33 0 0.66 0 1 C-1.010625 1.103125 -2.02125 1.20625 -3.0625 1.3125 C-6.10242198 1.84328003 -8.03682073 2.33607355 -10.75 3.5625 C-14 5 -14 5 -17 5 C-17.33 5.99 -17.66 6.98 -18 8 C-18.99 8.33 -19.98 8.66 -21 9 C-21 8.34 -21 7.68 -21 7 C-20.34 7 -19.68 7 -19 7 C-19 5.68 -19 4.36 -19 3 C-12.68284595 -0.44572039 -7.09629025 -0.31461385 0 0 Z " fill="#D1DCE8" transform="translate(623,77)"/>
<path d="M0 0 C0.33 0 0.66 0 1 0 C1 4.62 1 9.24 1 14 C1.99 13.67 2.98 13.34 4 13 C5.39439664 12.93334624 6.79169875 12.91461801 8.1875 12.9375 C10.0746875 12.9684375 10.0746875 12.9684375 12 13 C12 12.34 12 11.68 12 11 C13.32 11.33 14.64 11.66 16 12 C15.01 12 14.02 12 13 12 C13 12.66 13 13.32 13 14 C8.13112025 15.90005063 5.57710066 16 0 16 C0 10.72 0 5.44 0 0 Z " fill="#9BA8B5" transform="translate(568,116)"/>
<path d="M0 0 C0.66 0 1.32 0 2 0 C1.8125 2.3125 1.8125 2.3125 1 5 C-2.96150158 8.08850401 -6.11604948 8.40674193 -11.0625 8.375 C-12.27035156 8.38273437 -13.47820313 8.39046875 -14.72265625 8.3984375 C-18.15120125 7.98161796 -19.52493596 7.33310276 -22 5 C-21.67 4.34 -21.34 3.68 -21 3 C-20.44054687 3.48726563 -19.88109375 3.97453125 -19.3046875 4.4765625 C-15.44030748 7.03098319 -11.47729224 6.52881404 -7 6 C-3.49411299 4.87686069 -3.49411299 4.87686069 -1 3 C-0.67 2.01 -0.34 1.02 0 0 Z " fill="#A1AFBF" transform="translate(544,111)"/>
<path d="M0 0 C0 0.33 0 0.66 0 1 C-6.6 1 -13.2 1 -20 1 C-20 0.34 -20 -0.32 -20 -1 C-13.87032659 -4.67215457 -6.31238527 -2.49173103 0 0 Z " fill="#47495E" transform="translate(278,109)"/>
<path d="M0 0 C1.32 0 2.64 0 4 0 C4 0.66 4 1.32 4 2 C13.12166939 3.97225284 21.38905495 3.57194758 30 0 C29.01 1.485 29.01 1.485 28 3 C26.68 3 25.36 3 24 3 C24 3.66 24 4.32 24 5 C7.1070615 5.738041 7.1070615 5.738041 0 1 C0 0.67 0 0.34 0 0 Z " fill="#A5B4C1" transform="translate(518,127)"/>
<path d="M0 0 C0.66 0.33 1.32 0.66 2 1 C-1.21675498 5.24026793 -4.92142245 6.09360852 -9.85546875 7.38671875 C-11.96375089 7.80194002 -11.96375089 7.80194002 -13 9 C-14.85287502 9.07226502 -16.70833878 9.0838122 -18.5625 9.0625 C-19.57441406 9.05347656 -20.58632813 9.04445312 -21.62890625 9.03515625 C-22.41136719 9.02355469 -23.19382812 9.01195312 -24 9 C-24 8.67 -24 8.34 -24 8 C-22.4176994 7.66179834 -20.83410625 7.32964061 -19.25 7 C-18.36828125 6.814375 -17.4865625 6.62875 -16.578125 6.4375 C-14 6 -14 6 -10 6 C-10 5.34 -10 4.68 -10 4 C-8.906875 3.896875 -7.81375 3.79375 -6.6875 3.6875 C-3.14440371 3.02692273 -2.06756277 2.7972908 0 0 Z " fill="#8A9AAF" transform="translate(552,122)"/>
<path d="M0 0 C2.74362012 2.74362012 2.33130133 4.42199614 2.375 8.25 C2.30072428 13.83924801 1.91289279 16.97202213 -2 21 C-2.66 21 -3.32 21 -4 21 C-4 21.66 -4 22.32 -4 23 C-4.99 23.33 -5.98 23.66 -7 24 C-7 23.34 -7 22.68 -7 22 C-6.34 22 -5.68 22 -5 22 C-4.9175 21.443125 -4.835 20.88625 -4.75 20.3125 C-4 18 -4 18 -1.96875 15.78125 C0.4869713 12.31205642 0.41959284 10.38492276 0.25 6.1875 C0.21390625 5.02605469 0.1778125 3.86460938 0.140625 2.66796875 C0.09421875 1.78753906 0.0478125 0.90710938 0 0 Z " fill="#6C7587" transform="translate(106,117)"/>
<path d="M0 0 C3.08832844 2.52055775 3.7039963 4.85612063 4.5625 8.6875 C4.80742187 9.74839844 5.05234375 10.80929688 5.3046875 11.90234375 C5.53414063 12.92457031 5.76359375 13.94679688 6 15 C6.39072377 16.58460197 6.78567711 18.1681761 7.1875 19.75 C7.455625 20.8225 7.72375 21.895 8 23 C7.34 23 6.68 23 6 23 C2.49900287 15.47115666 0.97958852 8.22338785 0 0 Z " fill="#8E939F" transform="translate(390,109)"/>
<path d="M0 0 C0.66 0 1.32 0 2 0 C2 1.32 2 2.64 2 4 C2.66 4 3.32 4 4 4 C4 6.31 4 8.62 4 11 C4.66 11 5.32 11 6 11 C6 12.98 6 14.96 6 17 C6.66 17 7.32 17 8 17 C8 18.65 8 20.3 8 22 C8.66 22 9.32 22 10 22 C9.67 23.32 9.34 24.64 9 26 C5.52040285 20.52037799 3.77007566 15.34834748 2.25 9.0625 C2.02957031 8.18787109 1.80914062 7.31324219 1.58203125 6.41210938 C1.04530815 4.27688487 0.51822898 2.13977386 0 0 Z " fill="#CECFDA" transform="translate(493,106)"/>
<path d="M0 0 C0.66 0.33 1.32 0.66 2 1 C0.56988091 4.88175182 -0.8294723 8.64582709 -2.625 12.375 C-4.34582265 16.91171427 -4.71908844 21.18575705 -5 26 C-5.33 26 -5.66 26 -6 26 C-6 21.71 -6 17.42 -6 13 C-5.34 13 -4.68 13 -4 13 C-4.04125 12.278125 -4.0825 11.55625 -4.125 10.8125 C-3.99078695 7.79270631 -3.24829381 5.73064271 -2 3 C-1.34 3 -0.68 3 0 3 C0 2.01 0 1.02 0 0 Z " fill="#CFD3DD" transform="translate(51,72)"/>
<path d="M0 0 C2.4236329 2.4236329 2.6459746 4.00776965 3.4375 7.3125 C4.48500507 11.40149189 5.80000908 14.40001485 8 18 C8.6875 21.8125 8.6875 21.8125 9 25 C6.23539154 23.61769577 6.00879139 22.08867771 4.875 19.25 C4.52179688 18.38890625 4.16859375 17.5278125 3.8046875 16.640625 C2.98213194 13.94136502 2.84876004 11.80298055 3 9 C2.34 9 1.68 9 1 9 C0.67 6.03 0.34 3.06 0 0 Z " fill="#61667A" transform="translate(488,95)"/>
<path d="M0 0 C0.33 0 0.66 0 1 0 C1 9.57 1 19.14 1 29 C1.99 29 2.98 29 4 29 C4 29.99 4 30.98 4 32 C2.68 31.67 1.36 31.34 0 31 C0 20.77 0 10.54 0 0 Z " fill="#95A5BC" transform="translate(580,80)"/>
<path d="M0 0 C2 0 2 0 3.62109375 1.609375 C4.22050781 2.31578125 4.81992188 3.0221875 5.4375 3.75 C6.33275391 4.79414062 6.33275391 4.79414062 7.24609375 5.859375 C8.89081098 7.86673589 10.46126108 9.91070312 12 12 C11.34 13.32 10.68 14.64 10 16 C8.0625 15.1875 8.0625 15.1875 6 14 C5.67 13.01 5.34 12.02 5 11 C5.66 11 6.32 11 7 11 C7 11.66 7 12.32 7 13 C7.66 13 8.32 13 9 13 C7.29412231 9.77778659 5.42084662 7.32218575 2.8125 4.8125 C1.884375 3.884375 0.95625 2.95625 0 2 C0 1.34 0 0.68 0 0 Z " fill="#C3CEDD" transform="translate(94,94)"/>
<path d="M0 0 C0 3.30252488 -0.53079777 5.06159553 -2 8 C-4.58029579 10.41382509 -5.4065708 11 -9 11 C-9 11.99 -9 12.98 -9 14 C-9.66 13.67 -10.32 13.34 -11 13 C-10.67 12.01 -10.34 11.02 -10 10 C-9.34 10 -8.68 10 -8 10 C-7.79375 9.46375 -7.5875 8.9275 -7.375 8.375 C-5.42003056 4.9982346 -2.81776305 2.69525161 0 0 Z " fill="#93A3B7" transform="translate(602,86)"/>
<path d="M0 0 C0.73476562 0.48082031 1.46953125 0.96164063 2.2265625 1.45703125 C7.24923742 3.96836871 12.87911976 3.57421625 18.375 3.6875 C19.49261719 3.72166016 20.61023438 3.75582031 21.76171875 3.79101562 C24.50771222 3.87316073 27.25339982 3.94242128 30 4 C30 4.33 30 4.66 30 5 C21.09 5 12.18 5 3 5 C3 4.34 3 3.68 3 3 C2.01 2.67 1.02 2.34 0 2 C0 1.34 0 0.68 0 0 Z " fill="#BEC0CC" transform="translate(248,128)"/>
<path d="M0 0 C2.58340384 -0.02703562 5.16652308 -0.04685611 7.75 -0.0625 C8.47960937 -0.07087891 9.20921875 -0.07925781 9.9609375 -0.08789062 C16.71178285 -0.11857629 16.71178285 -0.11857629 20 1 C20.33 1.66 20.66 2.32 21 3 C23.01669827 4.13350534 23.01669827 4.13350534 25 5 C24.01 5.495 24.01 5.495 23 6 C21.07421875 5.2578125 21.07421875 5.2578125 18.6875 4.125 C12.56337483 1.52471259 6.58936094 1.20656304 0 1 C0 0.67 0 0.34 0 0 Z " fill="#A8B2C4" transform="translate(526,78)"/>
<path d="M0 0 C2.35170044 2.13790949 3.88791835 4.00593401 5 7 C5.125 10.25 5.125 10.25 5 13 C5.66 13 6.32 13 7 13 C7.33 15.97 7.66 18.94 8 22 C6 21 6 21 4.74609375 17.32421875 C4.3019122 15.7809213 3.86607537 14.23520392 3.4375 12.6875 C3.21642578 11.91470703 2.99535156 11.14191406 2.76757812 10.34570312 C1.78957541 6.90939751 0.85456848 3.46922776 0 0 Z " fill="#BCBFCA" transform="translate(392,78)"/>
<path d="M0 0 C7.875 0.875 7.875 0.875 9 2 C11.26902176 2.09980173 13.54128925 2.12967809 15.8125 2.125 C17.67841797 2.12886719 17.67841797 2.12886719 19.58203125 2.1328125 C22.28786002 2.02767173 24.44334355 1.81143252 27 1 C26.015625 2.4765625 26.015625 2.4765625 24 4 C21.15915054 4.30058781 18.58559614 4.41862456 15.75 4.375 C15.01136719 4.38660156 14.27273437 4.39820313 13.51171875 4.41015625 C8.29873246 4.38257431 4.66073112 3.33036556 0 1 C0 0.67 0 0.34 0 0 Z " fill="#5F6376" transform="translate(72,140)"/>
<path d="M0 0 C0.33 0 0.66 0 1 0 C1 1.98 1 3.96 1 6 C1.66 6 2.32 6 3 6 C3 12.27 3 18.54 3 25 C2.34 25 1.68 25 1 25 C1.01160156 23.94039062 1.02320313 22.88078125 1.03515625 21.7890625 C1.04453476 20.40104342 1.05363489 19.01302245 1.0625 17.625 C1.07087891 16.92632812 1.07925781 16.22765625 1.08789062 15.5078125 C1.1835442 11.62704624 1.1835442 11.62704624 0 8 C-0.13415472 5.3276379 -0.04318541 2.67749512 0 0 Z " fill="#DCE4EC" transform="translate(142,82)"/>
<path d="M0 0 C0.66 0.33 1.32 0.66 2 1 C1.01 2.485 1.01 2.485 0 4 C-0.66 4 -1.32 4 -2 4 C-2.04125 4.845625 -2.0825 5.69125 -2.125 6.5625 C-3.28909223 11.13571949 -5.77399123 13.66547105 -9 17 C-9 13.5551941 -8.28787023 11.18578426 -7 8 C-6.01 7.34 -5.02 6.68 -4 6 C-3.67 5.01 -3.34 4.02 -3 3 C-2.34 3 -1.68 3 -1 3 C-0.67 2.01 -0.34 1.02 0 0 Z " fill="#C2D0DE" transform="translate(594,92)"/>
<path d="M0 0 C0.33 0 0.66 0 1 0 C1.06058594 0.84304687 1.12117187 1.68609375 1.18359375 2.5546875 C1.26738281 3.65039062 1.35117187 4.74609375 1.4375 5.875 C1.51871094 6.96554688 1.59992187 8.05609375 1.68359375 9.1796875 C1.83001703 11.94728971 1.83001703 11.94728971 3 14 C0 13 0 13 -2 10 C-2.37167184 7.23979004 -2.17850636 4.81147524 -2 2 C-1.34 1.34 -0.68 0.68 0 0 Z " fill="#9EB0C5" transform="translate(519,100)"/>
<path d="M0 0 C0.33 1.32 0.66 2.64 1 4 C0.34 4 -0.32 4 -1 4 C-1 6.31 -1 8.62 -1 11 C-1.66 11 -2.32 11 -3 11 C-3 15.62 -3 20.24 -3 25 C-3.33 25 -3.66 25 -4 25 C-4.76595745 7.65957447 -4.76595745 7.65957447 0 0 Z " fill="#75798C" transform="translate(50,79)"/>
<path d="M0 0 C0.33 0 0.66 0 1 0 C1.625 3.375 1.625 3.375 2 7 C0 9 0 9 -1.87939453 9.22705078 C-2.62302246 9.21657715 -3.36665039 9.20610352 -4.1328125 9.1953125 C-5.34130859 9.18564453 -5.34130859 9.18564453 -6.57421875 9.17578125 C-7.41597656 9.15902344 -8.25773437 9.14226562 -9.125 9.125 C-10.39923828 9.11146484 -10.39923828 9.11146484 -11.69921875 9.09765625 C-13.79959884 9.07405647 -15.89983444 9.03818483 -18 9 C-18 8.67 -18 8.34 -18 8 C-12.72 8 -7.44 8 -2 8 C-2 7.01 -2 6.02 -2 5 C-1.34 5 -0.68 5 0 5 C0 3.35 0 1.7 0 0 Z " fill="#CAC9D4" transform="translate(464,124)"/>
<path d="M0 0 C1 2 1 2 -0.125 5.5625 C-2 9 -2 9 -4.6875 9.9375 C-5.450625 9.958125 -6.21375 9.97875 -7 10 C-5.6062718 5.56541027 -3.39417765 3.12621626 0 0 Z " fill="#6C7082" transform="translate(61,62)"/>
<path d="M0 0 C0.7425 1.0209375 0.7425 1.0209375 1.5 2.0625 C4.22230768 5.26121153 7.18087844 7.85256219 10.390625 10.546875 C10.92171875 11.02640625 11.4528125 11.5059375 12 12 C12 12.33 12 12.66 12 13 C10.35 13 8.7 13 7 13 C6.67 11.68 6.34 10.36 6 9 C5.34 9 4.68 9 4 9 C0.88002198 5.69649386 0 4.67590167 0 0 Z " fill="#D9E0EA" transform="translate(507,116)"/>
<path d="M0 0 C2.0625 0.4375 2.0625 0.4375 4 1 C3.34 1.66 2.68 2.32 2 3 C1.01 3 0.02 3 -1 3 C-0.97679687 3.69867188 -0.95359375 4.39734375 -0.9296875 5.1171875 C-0.91164063 6.02726562 -0.89359375 6.93734375 -0.875 7.875 C-0.85179687 8.77992187 -0.82859375 9.68484375 -0.8046875 10.6171875 C-1 13 -1 13 -3 15 C-3.37379162 5.46831364 -3.37379162 5.46831364 -1 1 C-0.67 0.67 -0.34 0.34 0 0 Z " fill="#8B98AD" transform="translate(648,82)"/>
<path d="M0 0 C3.96 0 7.92 0 12 0 C12 0.33 12 0.66 12 1 C10.96939453 1.05607422 10.96939453 1.05607422 9.91796875 1.11328125 C9.01691406 1.17902344 8.11585938 1.24476562 7.1875 1.3125 C6.29417969 1.37050781 5.40085937 1.42851563 4.48046875 1.48828125 C1.62618281 2.07711819 0.75992759 2.72497165 -1 5 C-2.04622875 6.97620986 -3.05439935 8.9737129 -4 11 C-4.33 11 -4.66 11 -5 11 C-5 9.35 -5 7.7 -5 6 C-4.34 6 -3.68 6 -3 6 C-2.690625 5.38125 -2.38125 4.7625 -2.0625 4.125 C-1.375 2.75 -0.6875 1.375 0 0 Z " fill="#BEBFCA" transform="translate(466,77)"/>
<path d="M0 0 C0.99 0 1.98 0 3 0 C5.03435531 3.72965139 6 5.66905042 6 10 C5.01 10 4.02 10 3 10 C3 7.69 3 5.38 3 3 C2.34 3 1.68 3 1 3 C0.67 3.99 0.34 4.98 0 6 C0 4.02 0 2.04 0 0 Z " fill="#B8BECF" transform="translate(472,96)"/>
<path d="M0 0 C0 0.66 0 1.32 0 2 C-2.5 3.625 -2.5 3.625 -5 5 C-5 4.34 -5 3.68 -5 3 C-7.31 3.33 -9.62 3.66 -12 4 C-9.57836922 -0.84326157 -4.82936706 -0.18574489 0 0 Z " fill="#565864" transform="translate(86,52)"/>
<path d="M0 0 C0.66 0 1.32 0 2 0 C2.33 1.98 2.66 3.96 3 6 C3.99 5.34 4.98 4.68 6 4 C6.99 4 7.98 4 9 4 C8.67 4.99 8.34 5.98 8 7 C5.66705225 7.04241723 3.33297433 7.04092937 1 7 C0 6 0 6 -0.0625 2.9375 C-0.041875 1.968125 -0.02125 0.99875 0 0 Z " fill="#242844" transform="translate(256,124)"/>
<path d="M0 0 C3.36295835 1.44126786 5.62927102 3.20592655 8 6 C8 6.99 8 7.98 8 9 C7.34 9 6.68 9 6 9 C6 8.34 6 7.68 6 7 C5.38125 6.773125 4.7625 6.54625 4.125 6.3125 C1.38589791 4.62070165 0.94975528 3.00755839 0 0 Z " fill="#E3ECF5" transform="translate(95,98)"/>
<path d="M0 0 C1.32 1.32 2.64 2.64 4 4 C3.67 4.66 3.34 5.32 3 6 C2.01 5.34 1.02 4.68 0 4 C0 7.96 0 11.92 0 16 C-0.33 16 -0.66 16 -1 16 C-1.02685095 13.52076199 -1.04676547 11.0418116 -1.0625 8.5625 C-1.07506836 7.50192383 -1.07506836 7.50192383 -1.08789062 6.41992188 C-1.09653588 4.61306441 -1.05220011 2.80612397 -1 1 C-0.67 0.67 -0.34 0.34 0 0 Z " fill="#3B3E60" transform="translate(382,86)"/>
<path d="M0 0 C-0.66 0 -1.32 0 -2 0 C-2.33 0.99 -2.66 1.98 -3 3 C-4.87617698 4.84499398 -6.92737609 6.3683599 -9 8 C-7.53679654 1.41558442 -7.53679654 1.41558442 -5.0625 -0.5 C-3 -1 -3 -1 0 0 Z " fill="#D0D9E3" transform="translate(653,79)"/>
<path d="M0 0 C0.33 0.66 0.66 1.32 1 2 C1.66 2.33 2.32 2.66 3 3 C2 6 2 6 -0.0625 7.1875 C-0.701875 7.455625 -1.34125 7.72375 -2 8 C-2 7.34 -2 6.68 -2 6 C-2.66 6 -3.32 6 -4 6 C-4 4 -4 4 -2 1.875 C-1.34 1.25625 -0.68 0.6375 0 0 Z " fill="#D2DBE6" transform="translate(106,134)"/>
<path d="M0 0 C0.33 0 0.66 0 1 0 C1.25 2.3125 1.25 2.3125 1 5 C-1.19018614 7.14962714 -2.50798579 7.94408929 -5.578125 8.29296875 C-6.45984375 8.25816406 -7.3415625 8.22335938 -8.25 8.1875 C-9.14203125 8.16042969 -10.0340625 8.13335937 -10.953125 8.10546875 C-11.62859375 8.07066406 -12.3040625 8.03585938 -13 8 C-13 7.67 -13 7.34 -13 7 C-10.03 7 -7.06 7 -4 7 C-4 6.34 -4 5.68 -4 5 C-3.34 5 -2.68 5 -2 5 C-2 4.34 -2 3.68 -2 3 C-1.34 3 -0.68 3 0 3 C0 2.01 0 1.02 0 0 Z " fill="#CFDBE6" transform="translate(643,114)"/>
<path d="M0 0 C1.5625 1.75 1.5625 1.75 3 4 C2.83710263 6.68780658 2.23099103 7.74129004 0.4375 9.75 C-0.2740625 10.36875 -0.2740625 10.36875 -1 11 C-1 7.21293268 -0.5745952 3.73486879 0 0 Z " fill="#484866" transform="translate(395,90)"/>
<path d="M0 0 C0.66 0.33 1.32 0.66 2 1 C-3.625 6 -3.625 6 -7 6 C-7 6.66 -7 7.32 -7 8 C-7.66 7.67 -8.32 7.34 -9 7 C-8.67 6.34 -8.34 5.68 -8 5 C-7.01 5 -6.02 5 -5 5 C-4.731875 4.360625 -4.46375 3.72125 -4.1875 3.0625 C-3 1 -3 1 0 0 Z " fill="#94A2B3" transform="translate(126,132)"/>
<path d="M0 0 C1.1764485 2.35289699 1.03475851 3.41818951 0.75 6 C0.68296875 6.70125 0.6159375 7.4025 0.546875 8.125 C0 10 0 10 -3 12 C-3.34833144 7.12335991 -2.41685712 4.22949995 0 0 Z " fill="#C0C5CF" transform="translate(415,120)"/>
<path d="M0 0 C1.60577252 4.01443129 0.36580696 7.04634827 -1 11 C-1.66 11.99 -2.32 12.98 -3 14 C-2.58846263 9.02906176 -2.20399168 4.55491614 0 0 Z " fill="#ACB0BB" transform="translate(419,105)"/>
<path d="M0 0 C1.46098063 5.05809202 0.92367167 9.26349726 -1.5625 13.9375 C-2.036875 14.618125 -2.51125 15.29875 -3 16 C-4.57159226 12.85681547 -3.04018399 10.07066611 -2.0625 6.875 C-1.86720703 6.21628906 -1.67191406 5.55757813 -1.47070312 4.87890625 C-0.98695014 3.25066448 -0.49430925 1.62506818 0 0 Z " fill="#A6B5C4" transform="translate(142,103)"/>
<path d="M0 0 C5.57142857 5.14285714 5.57142857 5.14285714 6 9 C5.01 9.33 4.02 9.66 3 10 C2.67 8.02 2.34 6.04 2 4 C1.34 4 0.68 4 0 4 C0 2.68 0 1.36 0 0 Z " fill="#E4EDF4" transform="translate(81,79)"/>
<path d="M0 0 C0.33 0.99 0.66 1.98 1 3 C0.34 3 -0.32 3 -1 3 C-1.04125 3.61875 -1.0825 4.2375 -1.125 4.875 C-1.41375 5.57625 -1.7025 6.2775 -2 7 C-5.0625 8.25 -5.0625 8.25 -8 9 C-7.24172908 7.82512964 -6.46792245 6.66027408 -5.6875 5.5 C-5.25824219 4.8503125 -4.82898438 4.200625 -4.38671875 3.53125 C-3.70029297 2.77328125 -3.70029297 2.77328125 -3 2 C-2.01 2 -1.02 2 0 2 C0 1.34 0 0.68 0 0 Z " fill="#CED9E5" transform="translate(132,128)"/>
<path d="M0 0 C0.66 0 1.32 0 2 0 C2 0.66 2 1.32 2 2 C2.66 2 3.32 2 4 2 C3.67 3.65 3.34 5.3 3 7 C2.01 7.33 1.02 7.66 0 8 C0 5.36 0 2.72 0 0 Z " fill="#99A6BA" transform="translate(596,107)"/>
<path d="M0 0 C6.88016529 1.98760331 6.88016529 1.98760331 9 5 C9.6875 7.6875 9.6875 7.6875 10 10 C5.125 5.25 5.125 5.25 4 3 C1.98330173 1.86649466 1.98330173 1.86649466 0 1 C0 0.67 0 0.34 0 0 Z " fill="#D0DAE6" transform="translate(546,80)"/>
<path d="M0 0 C6.4 0.49230769 6.4 0.49230769 9.4375 3.0625 C10.2109375 4.0215625 10.2109375 4.0215625 11 5 C6.87248551 4.39301257 3.6678852 2.96189209 0 1 C0 0.67 0 0.34 0 0 Z M4 5 C7 6 7 6 7 6 Z " fill="#98A3B3" transform="translate(109,53)"/>
<path d="M0 0 C-1.45537568 0.83848804 -2.91440373 1.67063934 -4.375 2.5 C-5.59316406 3.19609375 -5.59316406 3.19609375 -6.8359375 3.90625 C-9 5 -9 5 -11 5 C-11 4.01 -11 3.02 -11 2 C-9.68 2 -8.36 2 -7 2 C-7 1.34 -7 0.68 -7 0 C-2.25 -1.125 -2.25 -1.125 0 0 Z " fill="#B8B9C3" transform="translate(79,53)"/>
<path d="M0 0 C0.33 0.66 0.66 1.32 1 2 C-0.4726862 5.27263601 -1.42695432 6.72014048 -4.6875 8.3125 C-5.450625 8.539375 -6.21375 8.76625 -7 9 C-6.02180976 7.68677212 -5.0424189 6.37443848 -4.0625 5.0625 C-3.51722656 4.33160156 -2.97195313 3.60070312 -2.41015625 2.84765625 C-1 1 -1 1 0 0 Z " fill="#D8DFEA" transform="translate(557,118)"/>
<path d="M0 0 C0.99 0 1.98 0 3 0 C3 0.66 3 1.32 3 2 C3.99 2 4.98 2 6 2 C6 3.65 6 5.3 6 7 C3.95880212 5.38405168 1.95927063 3.7143618 0 2 C0 1.34 0 0.68 0 0 Z " fill="#606675" transform="translate(54,124)"/>
<path d="M0 0 C1.2380014 3.57644848 0.74926071 6.33694766 0 10 C-0.66 10 -1.32 10 -2 10 C-2.33 10.66 -2.66 11.32 -3 12 C-2.40075776 7.80530429 -1.42500059 3.99000166 0 0 Z " fill="#666B7D" transform="translate(457,99)"/>
<path d="M0 0 C0.99 0 1.98 0 3 0 C3 2.64 3 5.28 3 8 C2.34 7.01 1.68 6.02 1 5 C0.01 5.495 0.01 5.495 -1 6 C-0.67 4.02 -0.34 2.04 0 0 Z " fill="#707894" transform="translate(423,90)"/>
<path d="M0 0 C1.65 0 3.3 0 5 0 C5 2.31 5 4.62 5 7 C4.34 5.68 3.68 4.36 3 3 C2.01 3 1.02 3 0 3 C0 2.01 0 1.02 0 0 Z " fill="#5A637C" transform="translate(472,93)"/>
<path d="M0 0 C-0.28875 0.556875 -0.5775 1.11375 -0.875 1.6875 C-2.0413253 4.08494645 -3.0339881 6.51596939 -4 9 C-4.33 8.34 -4.66 7.68 -5 7 C-4.67 6.01 -4.34 5.02 -4 4 C-4.66 3.67 -5.32 3.34 -6 3 C-3.375 0 -3.375 0 0 0 Z " fill="#D7DEE9" transform="translate(87,56)"/>
<path d="M0 0 C0.33 0.66 0.66 1.32 1 2 C3.64 1.67 6.28 1.34 9 1 C8.67 1.66 8.34 2.32 8 3 C5.49609375 3.4140625 5.49609375 3.4140625 2.4375 3.625 C1.42558594 3.69976562 0.41367188 3.77453125 -0.62890625 3.8515625 C-1.41136719 3.90054688 -2.19382812 3.94953125 -3 4 C-3 3.34 -3 2.68 -3 2 C-2.01 1.34 -1.02 0.68 0 0 Z " fill="#CCD2D8" transform="translate(103,142)"/>
<path d="M0 0 C0.99 0.33 1.98 0.66 3 1 C2.67 1.99 2.34 2.98 2 4 C1.01 4 0.02 4 -1 4 C-1 4.99 -1 5.98 -1 7 C-1.99 6.67 -2.98 6.34 -4 6 C-3.34 6 -2.68 6 -2 6 C-1.7834375 5.071875 -1.7834375 5.071875 -1.5625 4.125 C-1 2 -1 2 0 0 Z " fill="#929EAF" transform="translate(110,134)"/>
<path d="M0 0 C2.5625 2.25 2.5625 2.25 5 5 C4.8125 7.3125 4.8125 7.3125 4 9 C4 8.34 4 7.68 4 7 C3.34 7 2.68 7 2 7 C0.5393715 4.35261084 0 3.10551666 0 0 Z " fill="#7A88A3" transform="translate(132,71)"/>
<path d="M0 0 C0.33 0.66 0.66 1.32 1 2 C0.67 2.99 0.34 3.98 0 5 C-1.98 5.33 -3.96 5.66 -6 6 C-4 4 -2 2 0 0 Z " fill="#232B43" transform="translate(101,134)"/>
<path d="M0 0 C0.66 0 1.32 0 2 0 C1.45276317 3.37462715 0.9451 5.08235 -1 8 C-2.2077558 4.37673261 -1.54311128 3.35853631 0 0 Z " fill="#7887A8" transform="translate(548,90)"/>
<path d="M0 0 C1.32 0.66 2.64 1.32 4 2 C4 2.99 4 3.98 4 5 C2.68 5 1.36 5 0 5 C-0.5625 3.0625 -0.5625 3.0625 -1 1 C-0.67 0.67 -0.34 0.34 0 0 Z " fill="#7D8CA4" transform="translate(117,57)"/>
<path d="M0 0 C7.50769231 0.61538462 7.50769231 0.61538462 10 2.5625 C10.33 3.036875 10.66 3.51125 11 4 C7.0507432 3.44894091 3.65079826 2.61064629 0 1 C0 0.67 0 0.34 0 0 Z " fill="#707383" transform="translate(72,140)"/>
<path d="M0 0 C0.99 0.33 1.98 0.66 3 1 C2.67 1.66 2.34 2.32 2 3 C1.01 3 0.02 3 -1 3 C-1 3.99 -1 4.98 -1 6 C-1.99 5.67 -2.98 5.34 -4 5 C-3.34 5 -2.68 5 -2 5 C-2.33 4.01 -2.66 3.02 -3 2 C-2.01 1.34 -1.02 0.68 0 0 Z " fill="#8090A5" transform="translate(132,123)"/>
<path d="M0 0 C2.62386487 3.06117568 3 3.73173127 3 8 C2.34 8 1.68 8 1 8 C0.67 5.36 0.34 2.72 0 0 Z " fill="#222942" transform="translate(247,112)"/>
<path d="M0 0 C0.66 0 1.32 0 2 0 C1.75 2.375 1.75 2.375 1 5 C-1.0625 6.3125 -1.0625 6.3125 -3 7 C-2.690625 6.401875 -2.38125 5.80375 -2.0625 5.1875 C-0.89790296 2.91043228 -0.89790296 2.91043228 0 0 Z " fill="#96A3BA" transform="translate(544,111)"/>
<path d="M0 0 C0.2475 0.556875 0.495 1.11375 0.75 1.6875 C2.21606015 4.39971127 4.02989471 6.63587365 6 9 C4.35 8.67 2.7 8.34 1 8 C0.67 5.36 0.34 2.72 0 0 Z " fill="#D2D6E5" transform="translate(179,112)"/>
<path d="M0 0 C0.66 0.33 1.32 0.66 2 1 C2 3.64 2 6.28 2 9 C1.01 9.33 0.02 9.66 -1 10 C-0.67 6.7 -0.34 3.4 0 0 Z " fill="#8F9DB6" transform="translate(547,101)"/>
<path d="M0 0 C0.99 0.33 1.98 0.66 3 1 C3 1.66 3 2.32 3 3 C3.66 3 4.32 3 5 3 C5.33 4.32 5.66 5.64 6 7 C1.2 4.53846154 1.2 4.53846154 0.1875 1.8125 C0.125625 1.214375 0.06375 0.61625 0 0 Z " fill="#A6B3C9" transform="translate(86,84)"/>
</svg>
